<?xml version="1.0" encoding="UTF-8"?>
<svg version="1.1" xmlns="http://www.w3.org/2000/svg" width="1254" height="1254">
<path d="M0 0 C413.82 0 827.64 0 1254 0 C1254 413.82 1254 827.64 1254 1254 C840.18 1254 426.36 1254 0 1254 C0 840.18 0 426.36 0 0 Z " fill="#348B4D" transform="translate(0,0)"/>
<path d="M0 0 C413.82 0 827.64 0 1254 0 C1254 413.82 1254 827.64 1254 1254 C840.18 1254 426.36 1254 0 1254 C0 840.18 0 426.36 0 0 Z M238 81 C236.14532975 81.58586715 234.28977101 82.16892511 232.43359375 82.75 C206.00967681 91.13322238 182.62822951 103.57264915 161 121 C160.10788818 121.71857178 160.10788818 121.71857178 159.19775391 122.45166016 C145.39250213 133.69291643 132.78717389 146.09483205 122.17724609 160.41259766 C121.08660644 161.8832196 119.97576839 163.33880365 118.86328125 164.79296875 C92.75909244 199.51307843 75.80658058 244.40480925 75.86577892 287.96417046 C75.86342669 289.14832753 75.86107446 290.3324846 75.85865095 291.55252522 C75.85315114 294.83182824 75.85208645 298.11109758 75.85292836 301.39040398 C75.85275815 304.96126245 75.84684401 308.5321123 75.8416875 312.10296643 C75.83238008 319.18227445 75.82844258 326.26157623 75.82616853 333.3408896 C75.82320151 341.82252649 75.81450104 350.30415513 75.80575425 358.78578768 C75.78492674 379.28796011 75.77444179 399.79013395 75.76562465 420.29231448 C75.76141476 429.9981532 75.75619316 439.70399131 75.75094012 449.40982951 C75.73304927 482.65530277 75.71805572 515.90077622 75.71061993 549.14625359 C75.71014517 551.23283905 75.70966929 553.31942452 75.70919226 555.40600998 C75.70895589 556.44073844 75.70871951 557.4754669 75.70847597 558.54155076 C75.70727481 563.78372265 75.70605935 569.02589453 75.70483398 574.26806641 C75.70459383 575.30837982 75.70435368 576.34869323 75.70410626 577.4205313 C75.6962196 611.12294329 75.67280117 644.82532001 75.64027804 678.52771661 C75.60593052 714.18600402 75.58626413 749.84427082 75.58297569 785.50257504 C75.58255817 789.42216882 75.58207862 793.34176259 75.58155251 797.26135635 C75.58142931 798.22642277 75.58130612 799.19148918 75.5811792 800.18580003 C75.57885305 815.67566078 75.56322567 831.16548039 75.54271066 846.65532652 C75.52238976 862.24687559 75.51700482 877.83837558 75.52648129 893.42993544 C75.53167232 902.6758795 75.52593319 911.92165942 75.50394662 921.16757965 C75.49033241 927.36480446 75.49160803 933.56191762 75.50434858 939.75914382 C75.5111756 943.27650458 75.51216004 946.79355407 75.49478849 950.31088565 C75.35981288 983.89001874 80.48958323 1016.46832695 95.0625 1047 C95.44607666 1047.80397217 95.82965332 1048.60794434 96.22485352 1049.4362793 C107.68490501 1073.03266058 122.59830091 1093.50009152 140.60253906 1112.5234375 C141.8320718 1113.82256643 143.0534156 1115.12943528 144.2734375 1116.4375 C150.06486493 1122.46575161 156.48094375 1127.54954564 163.13085938 1132.58398438 C164.37034498 1133.52298862 165.60608337 1134.46696115 166.83789062 1135.41601562 C176.10390305 1142.55054915 185.64926646 1148.56630168 196 1154 C196.67208496 1154.35723145 197.34416992 1154.71446289 198.03662109 1155.08251953 C206.12173031 1159.35854063 214.13966849 1162.9850812 222.81640625 1165.91015625 C225.70590962 1166.89932366 228.49852501 1168.00380944 231.3125 1169.1875 C234.96778345 1170.66969087 238.48640181 1171.67802983 242.3515625 1172.4375 C246.99898165 1173.42456248 251.57405964 1174.74675136 256.15625 1176 C272.01894165 1179.56647627 288.13985212 1179.29240092 304.30092407 1179.26313647 C307.86325907 1179.25892285 311.42557431 1179.26639235 314.98790431 1179.27228898 C321.21678962 1179.28101 327.44564204 1179.28237777 333.67453194 1179.27878571 C342.9376254 1179.2734581 352.20068726 1179.27959462 361.46377729 1179.28786864 C378.97347952 1179.30307977 396.48316725 1179.30481669 413.99287471 1179.30234561 C427.51727256 1179.30051039 441.04166567 1179.30227735 454.56606293 1179.30657005 C456.51157836 1179.30717246 458.45709378 1179.30777366 460.40260921 1179.30837366 C463.33459303 1179.30928094 466.26657685 1179.31018961 469.19856067 1179.31110601 C496.44594847 1179.3195312 523.6933345 1179.32387422 550.94072342 1179.31969929 C552.48032603 1179.31946472 552.48032603 1179.31946472 554.05103173 1179.31922542 C559.25281532 1179.31841968 564.45459889 1179.31757391 569.65638247 1179.31671212 C570.6894065 1179.31654103 571.72243052 1179.31636994 572.78675831 1179.31619367 C574.87578174 1179.31584701 576.96480516 1179.31549848 579.05382859 1179.31514808 C611.55559047 1179.30979146 644.05732521 1179.31772142 676.55908203 1179.33618164 C713.10591407 1179.35691524 749.65272931 1179.36762178 786.19956756 1179.36360615 C790.09926971 1179.36321083 793.99897186 1179.36284928 797.89867401 1179.36250877 C798.85882351 1179.36241804 799.818973 1179.36232731 800.80821794 1179.36223383 C815.27805906 1179.36106975 829.74788316 1179.36770169 844.21772003 1179.37832069 C860.68133893 1179.39039083 877.14492043 1179.39191076 893.60853991 1179.37953053 C902.81132045 1179.37291925 912.01401148 1179.37449288 921.21678479 1179.38811904 C927.37730364 1179.39640111 933.53775587 1179.39361756 939.69826938 1179.38214377 C943.19940085 1179.37592435 946.70035846 1179.37418929 950.20147946 1179.38600711 C969.81654137 1179.43879339 988.8185129 1178.4490466 1007.8125 1173.1875 C1008.76552002 1172.93105713 1009.71854004 1172.67461426 1010.70043945 1172.41040039 C1019.01787197 1170.11388469 1027.01647253 1167.25620278 1035 1164 C1035.98226562 1163.62488281 1036.96453125 1163.24976563 1037.9765625 1162.86328125 C1059.65917263 1154.35151281 1080.62295692 1141.50439819 1098 1126 C1099.45212891 1124.71029297 1099.45212891 1124.71029297 1100.93359375 1123.39453125 C1103.99906641 1120.64168192 1107.00751449 1117.83180184 1110 1115 C1110.92941406 1114.12472656 1111.85882812 1113.24945312 1112.81640625 1112.34765625 C1119.43010041 1105.94093403 1125.16360871 1099.12397193 1130.67675781 1091.76318359 C1131.93448034 1090.08730314 1133.2123063 1088.42850494 1134.4921875 1086.76953125 C1141.63741364 1077.31847516 1147.11888934 1067.01352359 1152.63378906 1056.55200195 C1153.94606374 1054.10074977 1155.31201426 1051.68737348 1156.69140625 1049.2734375 C1158.74192124 1045.6009037 1160.27682839 1041.93157304 1161.625 1037.9375 C1162.86019663 1034.31895417 1164.10221049 1030.71922806 1165.48828125 1027.15625 C1167.16988877 1022.70427441 1168.3838615 1018.16922903 1169.5625 1013.5625 C1169.77068359 1012.76779297 1169.97886719 1011.97308594 1170.19335938 1011.15429688 C1175.80227809 989.54501442 1177.45621339 968.52553134 1177.39780539 946.22583836 C1177.3919094 942.6825704 1177.40360319 939.1393479 1177.41286707 935.59609306 C1177.42667782 929.4081193 1177.42954273 923.22021863 1177.42490768 917.03223228 C1177.41803261 907.82946509 1177.42838765 898.62677104 1177.44186524 889.42401403 C1177.46669449 872.02465072 1177.47129812 854.62531826 1177.46939927 837.22594006 C1177.46802276 823.78136869 1177.4718606 810.33680792 1177.47932434 796.89223862 C1177.48037471 794.9562223 1177.48142233 793.02020599 1177.4824672 791.08418968 C1177.48324622 789.64248787 1177.48324622 789.64248787 1177.48404097 788.17166077 C1177.48456112 787.20870072 1177.48508126 786.24574066 1177.48561716 785.2536 C1177.48614115 784.28894541 1177.48666514 783.32429082 1177.48720502 782.33040428 C1177.50177614 755.22055497 1177.51007629 728.11070954 1177.50545502 701.0008564 C1177.50528306 699.98012786 1177.50511111 698.95939932 1177.50493394 697.90773962 C1177.50404514 692.73507085 1177.50310033 687.56240209 1177.50213593 682.38973333 C1177.5019449 681.36255005 1177.50175387 680.33536678 1177.50155704 679.27705673 C1177.50116995 677.19984409 1177.50077962 675.12263146 1177.50038607 673.04541882 C1177.49441977 640.74411711 1177.50984289 608.44288711 1177.54199219 576.14160156 C1177.57814028 539.79238835 1177.59739208 503.4432206 1177.59245348 467.0939883 C1177.59198356 463.21129855 1177.59157329 459.3286088 1177.59120178 455.44591904 C1177.5910482 454.01205548 1177.5910482 454.01205548 1177.59089152 452.54922498 C1177.58970103 438.17349322 1177.60160705 423.79781089 1177.62034607 409.42209244 C1177.64167417 393.05294513 1177.64534068 376.68390088 1177.62604648 360.31474884 C1177.61579022 351.17640609 1177.61900952 342.03831546 1177.64257733 332.89999599 C1177.65697531 326.76856517 1177.65264515 320.63731778 1177.63413157 314.50589884 C1177.62413327 311.03040393 1177.62122511 307.55539364 1177.64145225 304.07993199 C1177.70946903 289.43980817 1176.9356626 275.25503711 1174.6447525 260.80718803 C1174.538807 260.13874851 1174.4328615 259.47030898 1174.32370554 258.78161372 C1172.50213905 247.5223842 1169.84052423 236.73265594 1166 226 C1165.61062256 224.89519287 1165.61062256 224.89519287 1165.21337891 223.76806641 C1153.89911022 191.91555922 1136.29887738 164.38412349 1113 140 C1112.16597656 139.12472656 1111.33195312 138.24945313 1110.47265625 137.34765625 C1104.67829797 131.4068371 1098.53397688 126.10920692 1092 121 C1091.13375 120.30519531 1090.2675 119.61039063 1089.375 118.89453125 C1073.17408163 106.26057644 1054.52665709 94.52941846 1035 88 C1033.68512082 87.50629058 1032.37242089 87.00671837 1031.0625 86.5 C1014.94522144 80.48029355 998.82777974 75.85341158 981.66015625 74.359375 C978 74 978 74 976.07839796 73.48558914 C973.68691082 72.92685101 971.54163117 72.87331152 969.0854764 72.87119883 C968.08886999 72.86792664 967.09226359 72.86465445 966.06545699 72.86128309 C964.97055303 72.86276672 963.87564908 72.86425034 962.74756622 72.86577892 C961.57960821 72.86342669 960.4116502 72.86107446 959.20829952 72.85865095 C955.95111083 72.85312096 952.69395576 72.85208995 949.43676359 72.85292836 C945.89855423 72.852759 942.36035374 72.84685439 938.8221488 72.8416875 C931.7970512 72.83235331 924.7719599 72.82843805 917.74685687 72.82616853 C909.33408341 72.82320835 900.92131833 72.81451168 892.50854927 72.80575425 C872.16562371 72.78489513 851.82269669 72.77443549 831.47976293 72.76562465 C821.8505138 72.76141792 812.2212653 72.75619578 802.5920167 72.75094012 C769.6157206 72.73304354 736.63942432 72.71805094 703.66312408 72.71061993 C701.59207562 72.71014517 699.52102715 72.70966928 697.44997868 72.70919226 C696.42293444 72.70895589 695.39589021 72.70871951 694.33772342 72.70847597 C689.13432863 72.70727479 683.93093385 72.70605934 678.72753906 72.70483398 C677.69491103 72.70459383 676.662283 72.70435368 675.59836321 72.70410626 C642.16053647 72.69622325 608.7227453 72.67281536 575.28493408 72.64027804 C539.91684391 72.60592548 504.54877453 72.58626347 469.1806674 72.58297569 C465.29215208 72.58255817 461.40363677 72.58207861 457.51512146 72.58155251 C456.55768887 72.58142931 455.60025628 72.58130612 454.61381059 72.5811792 C439.24754018 72.57885322 423.88131126 72.56322628 408.5150556 72.54271066 C393.0427411 72.52238269 377.57047605 72.51700804 362.09815067 72.52648129 C352.92353909 72.53167025 343.74909298 72.52594332 334.57450545 72.50394662 C328.42337534 72.49032312 322.27235766 72.491616 316.12122613 72.50434858 C312.6309239 72.51116979 309.1409352 72.51218109 305.65066248 72.49478849 C282.873057 72.40243553 259.72387053 73.58096204 238 81 Z " fill="#FDFDFD" transform="translate(0,0)"/>
<path d="M0 0 C4.19897454 2.0598743 6.91706813 4.44841582 9.17736816 8.57888794 C11.09001646 14.20805966 10.47735647 20.45410537 10.390625 26.33984375 C10.38315516 27.8319879 10.37746574 29.32414193 10.37347412 30.81629944 C10.35827597 34.72424897 10.31904585 38.6315942 10.2746582 42.53930664 C10.23357879 46.53458484 10.21543621 50.52996165 10.1953125 54.52539062 C10.15254466 62.3505345 10.08436564 70.17518225 10 78 C10.66935074 78.06040466 11.33870148 78.12080933 12.02833557 78.18304443 C12.91560837 78.2666925 13.80288116 78.35034058 14.71704102 78.43652344 C15.59264175 78.5175531 16.46824249 78.59858276 17.37037659 78.68206787 C21.33911487 79.16190442 25.10296618 80.14446895 28.9375 81.25 C29.71963867 81.47324951 30.50177734 81.69649902 31.30761719 81.92651367 C37.50340743 83.74974735 43.28650155 85.96547911 49 89 C50.10730469 89.58652344 51.21460938 90.17304687 52.35546875 90.77734375 C68.96402362 99.81415019 89.53305797 114.05905966 98.29174805 131.5847168 C99.79164751 134.18222575 99.79164751 134.18222575 102.45410156 134.93139648 C103.4231543 135.07649658 104.39220703 135.22159668 105.390625 135.37109375 C106.47980225 135.54906494 107.56897949 135.72703613 108.69116211 135.91040039 C110.45278687 136.1713147 110.45278687 136.1713147 112.25 136.4375 C114.73670511 136.85591466 117.22238097 137.28048876 119.70703125 137.7109375 C120.94791504 137.92459961 122.18879883 138.13826172 123.46728516 138.35839844 C163.25398657 145.58434532 205.94255906 160.59089128 237 187 C238.04220703 187.87011719 238.04220703 187.87011719 239.10546875 188.7578125 C247.01476223 195.96124226 253.495592 206.64844695 256 217 C256 218.32 256 219.64 256 221 C256.63276855 220.97905273 257.26553711 220.95810547 257.91748047 220.93652344 C286.50985541 220.11945069 310.13373595 225.51276287 331.69140625 245.65625 C349.1277806 263.35815289 358.11281593 285.4977819 358.17700195 310.18920898 C358.18685875 311.84931252 358.18685875 311.84931252 358.19691467 313.54295349 C358.21657115 317.19400105 358.22829528 320.84500755 358.23828125 324.49609375 C358.24235678 325.74948107 358.2464323 327.00286839 358.25063133 328.29423714 C358.26931963 334.24976497 358.28388991 340.20527995 358.2922433 346.16082996 C358.30198575 352.990498 358.32823716 359.81983937 358.36874419 366.64939255 C358.40280243 372.60006138 358.4144095 378.55065236 358.41844749 384.50142097 C358.42328777 387.01415276 358.43482766 389.5268817 358.45348549 392.03954887 C358.5479965 405.61461041 358.36602636 418.04063346 354 431 C353.73023849 431.81727066 353.46047699 432.63454132 353.18254089 433.47657776 C345.02502917 456.16315371 328.01108275 473.32723443 306.5625 483.8125 C294.61714647 488.92688099 282.13019324 491.15553939 269.20057678 491.13422108 C268.22617895 491.13657331 267.25178112 491.13892554 266.24785608 491.14134905 C262.97520337 491.14801829 259.70259056 491.14758145 256.42993164 491.14717102 C254.06281982 491.15047093 251.69570856 491.15419676 249.32859802 491.1583125 C243.50034683 491.16727582 237.67210277 491.17155782 231.84384615 491.17383147 C224.86176217 491.17679774 217.87968823 491.18549761 210.89760952 491.19424575 C194.02276813 491.21507345 177.14792501 491.22555719 160.27307377 491.23437535 C152.28779166 491.23858413 144.30251031 491.2438058 136.31722884 491.24905988 C108.97488484 491.26694835 81.63254062 491.28194385 54.29019165 491.28938007 C52.57417428 491.28985483 50.85815692 491.29033072 49.14213955 491.29080774 C47.86567577 491.2911623 47.86567577 491.2911623 46.56342485 491.29152403 C42.25208141 491.2927252 37.94073797 491.29394066 33.62939453 491.29516602 C32.34600509 491.29552624 32.34600509 491.29552624 31.0366886 491.29589374 C3.29975573 491.30378571 -24.43713437 491.32721631 -52.17404856 491.35972196 C-81.50917248 491.39403775 -110.84427138 491.4137328 -140.1794157 491.41702431 C-143.40119617 491.41744184 -146.62297663 491.4179214 -149.84475708 491.41844749 C-150.63803176 491.41857069 -151.43130644 491.41869388 -152.24861974 491.4188208 C-165.00167585 491.42115057 -177.75468217 491.43679797 -190.50772055 491.45728934 C-203.33239645 491.47756853 -216.15701271 491.48301473 -228.98170167 491.47351871 C-235.92627902 491.46876929 -242.87070926 491.47034886 -249.81526375 491.49028015 C-256.1776154 491.50790077 -262.53968794 491.50692257 -268.90204251 491.49138286 C-271.1988582 491.48900518 -273.49569316 491.49333855 -275.7924794 491.50521151 C-288.19508374 491.56533368 -299.21455587 491.11374042 -311 487 C-311.94863922 486.67868538 -312.89727844 486.35737075 -313.87466431 486.02631932 C-324.4675244 482.28558669 -333.56747548 475.26212396 -342 468 C-343.03253906 467.11248047 -343.03253906 467.11248047 -344.0859375 466.20703125 C-356.60324208 454.60502365 -364.73415923 437.52834048 -368 421 C-368.16183368 420.23032772 -368.32366735 419.46065544 -368.49040508 418.66765976 C-369.81547042 412.00828401 -370.29205449 405.67106109 -370.2746582 398.89160156 C-370.27976913 397.8411969 -370.28488007 396.79079224 -370.29014587 395.70855713 C-370.30393628 392.26918688 -370.30309281 388.83001945 -370.30078125 385.390625 C-370.30467446 382.97605313 -370.30901041 380.56148194 -370.31376648 378.14691162 C-370.32120643 373.0969419 -370.32095393 368.04704211 -370.31567383 362.99707031 C-370.30988767 356.56083281 -370.32680078 350.12488386 -370.3500185 343.688694 C-370.36483091 338.7040645 -370.36561726 333.71950326 -370.36250877 328.73485565 C-370.36301839 326.36365946 -370.36818779 323.99245908 -370.37832069 321.62128448 C-370.48132231 294.14581988 -365.68890421 269.03290884 -345.78125 248.74609375 C-344.8634375 247.83988281 -343.945625 246.93367187 -343 246 C-342.1853125 245.18660156 -341.370625 244.37320313 -340.53125 243.53515625 C-323.30521504 227.1760159 -302.72420549 220.56239478 -279.375 220.875 C-278.08464844 220.88402344 -276.79429687 220.89304687 -275.46484375 220.90234375 C-272.30969751 220.9257152 -269.15495074 220.95847909 -266 221 C-265.96261719 220.34773437 -265.92523438 219.69546875 -265.88671875 219.0234375 C-264.93100348 206.31804629 -257.64405006 197.8927997 -249 189 C-248.44828125 188.38640625 -247.8965625 187.7728125 -247.328125 187.140625 C-217.26116338 154.69212187 -159.28180501 140.78924696 -117.71875 134.7890625 C-111.13675576 133.81282992 -111.13675576 133.81282992 -106.078125 129.75 C-105.17320312 128.38875 -105.17320312 128.38875 -104.25 127 C-100.24500369 121.23763242 -95.8415927 116.07290438 -91 111 C-90.48421387 110.45649902 -89.96842773 109.91299805 -89.43701172 109.35302734 C-74.30432319 93.75905449 -54.14355119 83.47369849 -33 79 C-31.80503906 78.70609375 -31.80503906 78.70609375 -30.5859375 78.40625 C-27.03409235 77.8482562 -23.59597176 77.97621288 -20 78 C-20.00999275 76.76424477 -20.00999275 76.76424477 -20.02018738 75.50352478 C-20.0804218 67.72088264 -20.12603684 59.93835433 -20.15543652 52.15553951 C-20.17105956 48.15477959 -20.19223588 44.15421308 -20.22631836 40.15356445 C-20.25903248 36.28913548 -20.27687827 32.42489198 -20.28463173 28.56033516 C-20.2901537 27.08960617 -20.3009367 25.61888677 -20.31719017 24.14823723 C-20.33912569 22.0802951 -20.34196036 20.01310902 -20.34057617 17.94506836 C-20.35056892 16.18301308 -20.35056892 16.18301308 -20.36076355 14.38536072 C-19.86475922 9.73091717 -18.57559451 5.65401776 -15.2734375 2.1875 C-9.98373451 -1.12128541 -6.0254111 -1.82215586 0 0 Z " fill="#FCFDFC" transform="translate(628,424)"/>
<path d="M0 0 C2.4674127 0.00637828 4.93013947 -0.04096506 7.39697266 -0.09130859 C16.70350027 -0.16715264 22.38442387 0.48593019 29.70556641 6.63134766 C31.22061624 7.53638283 32.75964826 8.40234685 34.31884766 9.22900391 C35.46824829 9.83844849 35.46824829 9.83844849 36.64086914 10.46020508 C37.42534424 10.86730713 38.20981934 11.27440918 39.01806641 11.69384766 C39.85345947 12.12866455 40.68885254 12.56348145 41.54956055 13.01147461 C47.81530368 16.2386203 54.09118531 19.18157688 60.70556641 21.63134766 C61.42824707 21.90043945 62.15092773 22.16953125 62.89550781 22.44677734 C72.92015143 26.15122957 82.90598049 29.40409454 93.32275391 31.80712891 C96.70556641 32.63134766 96.70556641 32.63134766 99.40087891 33.54931641 C108.46604312 36.51746119 117.84695436 38.35521405 127.20556641 40.13134766 C128.33559082 40.34637939 129.46561523 40.56141113 130.62988281 40.78295898 C145.14527596 43.50754111 159.63601693 45.67898862 174.34960938 46.9855957 C177.62947995 47.28196955 180.5689522 47.58580959 183.70556641 48.63134766 C188.54046095 49.13300292 193.39683604 49.38727579 198.24853516 49.67822266 C198.9782723 49.72259209 199.70800945 49.76696152 200.45985985 49.81267548 C215.87850709 50.73096217 231.2672354 50.94157729 246.7097168 50.89208984 C250.31339407 50.88064214 253.91677733 50.8875233 257.52044487 50.89897919 C281.3433144 50.96290619 304.97881614 49.81770966 328.64111328 46.88574219 C330.85425395 46.61302547 333.06877882 46.3540986 335.28369141 46.09619141 C342.20313199 45.61116223 342.20313199 45.61116223 348.70556641 43.63134766 C350.91629443 43.31821808 353.13230533 43.04208204 355.35009766 42.78369141 C363.4914208 41.76754135 371.40870332 40.06059194 379.39306641 38.19384766 C380.71649765 37.89051728 382.04006543 37.58778199 383.36376953 37.28564453 C416.87033482 29.90546145 416.87033482 29.90546145 448.43212891 16.80712891 C450.70556641 15.63134766 450.70556641 15.63134766 453.90087891 14.30322266 C458.43382177 12.3894621 462.672719 9.98058222 466.95556641 7.56884766 C467.75736328 7.1221875 468.55916016 6.67552734 469.38525391 6.21533203 C472.56822233 4.43489234 475.66877692 2.65587398 478.70556641 0.63134766 C481.27658643 0.38703505 483.73640083 0.25541684 486.31103516 0.22509766 C487.06790115 0.21369751 487.82476715 0.20229736 488.60456848 0.19055176 C490.21426827 0.1716475 491.82404553 0.15858203 493.43383789 0.15087891 C495.8403585 0.13176626 498.2432302 0.06988403 500.64892578 0.00634766 C515.20912815 -0.19191965 528.13295387 3.40579108 539.70556641 12.63134766 C540.73037109 13.41445313 540.73037109 13.41445313 541.77587891 14.21337891 C553.47676856 23.71200986 560.71571406 38.24435582 562.49597168 53.11001587 C562.94961012 58.56708557 562.89043729 64.04553044 562.90869141 69.51806641 C562.91151878 70.17852274 562.91434616 70.83897907 562.91725922 71.51944923 C562.9321734 75.01630668 562.94145129 78.51312372 562.94580078 82.01000977 C562.95126768 85.58242415 562.97528011 89.15445404 563.00377274 92.72674847 C563.02259002 95.50923168 563.02761477 98.29162585 563.02913666 101.07416725 C563.03355337 103.01976091 563.0521019 104.96530652 563.07110596 106.91081238 C563.0242795 125.86051903 556.99123901 140.9748932 543.80322266 154.59619141 C532.0314835 165.59759181 516.39789635 170.96940438 500.48776817 170.88861656 C499.60054646 170.89212264 498.71332474 170.89562871 497.79921752 170.89924103 C494.83510639 170.90852282 491.87119311 170.90364001 488.90707397 170.89877319 C486.75684945 170.90251108 484.60662629 170.90711315 482.45640528 170.91250384 C476.55406151 170.92473224 470.65177443 170.92447354 464.74942088 170.92211509 C458.38112563 170.92170688 452.01284855 170.93274649 445.64456177 170.94223022 C433.16986642 170.95884057 420.69519057 170.96436573 408.22048514 170.96545498 C398.07923455 170.96637469 387.93799008 170.97049461 377.79674149 170.97685623 C374.87570179 170.97865137 371.95466209 170.980431 369.03362238 170.98220599 C368.30740249 170.98264808 367.58118259 170.98309018 366.83295604 170.98354567 C346.40947827 170.99585168 325.98600262 171.00374705 305.56252098 171.00285912 C304.79274035 171.00282796 304.02295971 171.0027968 303.22985239 171.0027647 C299.32845054 171.00259849 295.4270487 171.00240041 291.52564685 171.00219528 C290.75084136 171.00215539 289.97603588 171.0021155 289.17775143 171.0020744 C287.61090573 171.00199353 286.04406003 171.00190993 284.47721432 171.00182362 C260.10653047 171.00059846 235.7359023 171.0156059 211.36523438 171.04296875 C183.97217131 171.07371255 156.57914482 171.09089984 129.18606341 171.08904231 C126.26313758 171.08889305 123.34021175 171.08879563 120.41728592 171.08873367 C119.69761122 171.08871036 118.97793651 171.08868706 118.23645349 171.08866304 C106.67183559 171.08860158 95.10726616 171.1013551 83.54266266 171.1185982 C71.91236117 171.13558015 60.28214613 171.1371664 48.65183727 171.12437956 C42.35532405 171.1178527 36.05898586 171.11772282 29.76248932 171.13508606 C23.99233781 171.15083389 18.22249988 171.14793528 12.45235594 171.1305178 C10.37094379 171.12745171 8.28950814 171.13106541 6.20812373 171.14223795 C-14.01732884 171.24356764 -30.87273776 168.34648179 -46.08740234 153.82666016 C-46.81572266 153.10220703 -47.54404297 152.37775391 -48.29443359 151.63134766 C-48.84744141 151.11314453 -49.40044922 150.59494141 -49.97021484 150.06103516 C-53.74076183 146.17869297 -56.09638326 141.53197123 -58.54443359 136.75634766 C-58.88619629 136.09626709 -59.22795898 135.43618652 -59.58007812 134.75610352 C-64.53864786 124.67713729 -64.64541976 114.56975944 -64.70068359 103.56494141 C-64.70633835 102.79882097 -64.7119931 102.03270054 -64.71781921 101.24336433 C-64.7476593 97.18542266 -64.76620643 93.12762043 -64.77490234 89.06958008 C-64.78582625 84.9264864 -64.83382186 80.78472236 -64.89084625 76.64204311 C-64.92851744 73.41334072 -64.93853214 70.1849447 -64.9415741 66.95604134 C-64.94753888 65.43130319 -64.96328818 63.90656444 -64.98994446 62.38204765 C-65.25092662 46.30361229 -60.90872084 33.04608599 -50.29443359 20.63134766 C-49.77494141 20.00099609 -49.25544922 19.37064453 -48.72021484 18.72119141 C-35.72544416 4.35165909 -18.65876752 -0.1008582 0 0 Z " fill="#E7EEE8" transform="translate(373.29443359375,694.36865234375)"/>
<path d="M0 0 C0.79922379 -0.00281982 1.59844757 -0.00563965 2.42189026 -0.00854492 C4.98327043 -0.01277165 7.54413979 -0.00032298 10.10546875 0.015625 C11.41695892 0.02027771 11.41695892 0.02027771 12.75494385 0.02502441 C31.45664124 0.10313592 49.22308743 1.17853859 67.29296875 6.265625 C68.45143311 6.59071045 68.45143311 6.59071045 69.63330078 6.92236328 C80.68574808 10.08627446 91.08251635 13.96437175 101.29296875 19.265625 C102.45530029 19.86334717 102.45530029 19.86334717 103.64111328 20.47314453 C115.26597319 26.50244773 126.05988528 33.08795457 136.29296875 41.265625 C136.84500977 41.70342285 137.39705078 42.1412207 137.96582031 42.59228516 C160.85469659 60.9020294 178.73685291 83.335344 192.29296875 109.265625 C192.89753906 110.41933594 193.50210937 111.57304687 194.125 112.76171875 C206.43703125 137.69149759 213.35886858 165.98200573 213.60546875 193.765625 C213.63447266 194.85488281 213.66347656 195.94414062 213.69335938 197.06640625 C213.75441675 204.8347828 212.67241804 210.25597537 207.6171875 216.25390625 C202.11457292 220.7059023 196.77794421 223.96281373 189.40234375 223.60546875 C183.25220028 222.6146123 178.69314868 220.26762058 174.85546875 215.328125 C171.78690079 210.9307185 170.11625973 206.70590843 169.765625 201.34375 C169.69762695 200.40958252 169.62962891 199.47541504 169.55957031 198.51293945 C169.4922168 197.52382568 169.42486328 196.53471191 169.35546875 195.515625 C166.47116107 159.13401676 154.36562068 127.03447152 130.29296875 99.265625 C129.761875 98.61335938 129.23078125 97.96109375 128.68359375 97.2890625 C124.971277 92.75843938 120.79515815 88.99993649 116.29296875 85.265625 C115.56464844 84.64945312 114.83632813 84.03328125 114.0859375 83.3984375 C101.80513517 73.25608334 88.84824649 65.59061511 74.30175781 59.15527344 C72.71506735 58.45256317 71.13870751 57.72652878 69.56640625 56.9921875 C60.95931523 53.19046885 51.44912137 51.29557206 42.29296875 49.265625 C41.45902588 49.07508545 40.62508301 48.8845459 39.76586914 48.68823242 C31.75074265 47.02578605 23.76032728 46.82554913 15.60546875 46.828125 C14.88430878 46.8270575 14.1631488 46.82598999 13.4201355 46.82489014 C-0.09470001 46.85358682 -12.66732618 48.59913196 -25.70703125 52.265625 C-26.50560547 52.47960937 -27.30417969 52.69359375 -28.12695312 52.9140625 C-46.65975269 57.98125833 -63.61856423 67.49584894 -78.70703125 79.265625 C-79.63257813 79.96945312 -80.558125 80.67328125 -81.51171875 81.3984375 C-112.94818627 106.09201054 -133.33121945 142.68292888 -139.3828125 182.1015625 C-139.80423754 186.21426465 -139.96614897 190.32388997 -140.14453125 194.453125 C-140.61330409 204.57402461 -142.00570375 212.10883581 -149.70703125 219.265625 C-155.58937106 223.46729629 -161.6291353 224.01178873 -168.70703125 223.265625 C-174.8040256 221.48375693 -179.37281208 217.6386024 -182.70703125 212.265625 C-184.96533964 207.0784525 -185.05506017 202.2631441 -185.01953125 196.703125 C-185.0146167 195.78418457 -185.00970215 194.86524414 -185.00463867 193.91845703 C-184.69271312 175.12934139 -180.64447285 157.02847113 -174.70703125 139.265625 C-174.48144531 138.40066406 -174.25585938 137.53570312 -174.0234375 136.64453125 C-165.01632611 102.9962032 -140.83916308 68.99064159 -113.70703125 47.265625 C-112.69382812 46.43804687 -111.680625 45.61046875 -110.63671875 44.7578125 C-93.84540423 31.18747341 -75.41948561 18.88359401 -54.70703125 12.265625 C-53.41258446 11.77286715 -52.1207615 11.27314557 -50.83203125 10.765625 C-41.2523719 7.19749277 -31.67991344 4.72010456 -21.62890625 2.9765625 C-18.86833305 2.47613987 -16.22160121 1.90585819 -13.50610352 1.23779297 C-8.95295456 0.22202935 -4.65192277 -0.02471057 0 0 Z " fill="#FBFCFC" transform="translate(606.70703125,296.734375)"/>
<path d="M0 0 C1.22552078 0.00182785 1.22552078 0.00182785 2.47579956 0.00369263 C13.19874358 0.02234849 23.90873781 0.16068865 34.625 0.5625 C36.20075806 0.62123291 36.20075806 0.62123291 37.80834961 0.68115234 C42.18893272 0.8727134 46.26309601 1.2538651 50.5625 2.125 C52.07180731 2.27208862 53.58406314 2.39121104 55.09765625 2.484375 C70.81722594 3.57595162 86.12896107 5.96904769 101.5625 9.125 C103.11952637 9.44162598 103.11952637 9.44162598 104.70800781 9.76464844 C116.87829658 12.31997597 128.39121257 15.93768634 139.9375 20.5625 C141.60437866 21.22596436 141.60437866 21.22596436 143.30493164 21.90283203 C150.40232454 24.86496931 156.44655442 28.47682253 162.5625 33.125 C163.531875 33.82625 164.50125 34.5275 165.5 35.25 C168.75983157 38.21348325 170.34738484 40.68065537 171 45.0625 C170.1626699 50.92381069 166.3561451 54.90636042 161.8828125 58.5 C142.35691086 72.17470553 117.62525246 77.70125474 94.5 81.6875 C92.11325895 82.10534139 89.7265399 82.52330846 87.33984375 82.94140625 C85.61664917 83.23954224 85.61664917 83.23954224 83.85864258 83.54370117 C80.86080176 84.0723923 77.87255848 84.63869284 74.8828125 85.2109375 C69.44221268 86.20325441 64.0095546 86.74535151 58.5 87.1875 C57.60345703 87.26548828 56.70691406 87.34347656 55.78320312 87.42382812 C52.71100739 87.68144121 49.6377887 87.9073559 46.5625 88.125 C44.73404541 88.25962646 44.73404541 88.25962646 42.86865234 88.39697266 C29.3799739 89.31117779 15.8780481 89.34656064 2.36328125 89.36523438 C-1.63818517 89.37173456 -5.63927837 89.40597782 -9.640625 89.4375 C-40.96168129 89.56542013 -72.1784635 86.50642775 -102.4375 78.125 C-103.35176758 77.87878906 -104.26603516 77.63257813 -105.20800781 77.37890625 C-149.913597 65.28771487 -149.913597 65.28771487 -159.4375 49.125 C-160.42569291 46.16042128 -160.42569291 44.08957872 -159.4375 41.125 C-149.63814316 24.49482112 -123.4760867 17.33462572 -106.05859375 12.66015625 C-71.48461293 3.7344361 -35.65872468 -0.11672622 0 0 Z " fill="#FCFCFC" transform="translate(616.4375,602.875)"/>
<path d="M0 0 C0.68231941 -0.00061684 1.36463882 -0.00123367 2.06763458 -0.0018692 C28.30532412 -0.01901645 54.08174698 1.62642704 80.0625 5.4375 C80.85277588 5.55113892 81.64305176 5.66477783 82.45727539 5.78186035 C115.76202913 10.59736348 161.20643306 18.75716369 184.12890625 45.8828125 C189.6916983 53.47793985 193.46506678 60.84266819 192.0625 70.4375 C188.29466548 84.65658979 177.79684276 93.25844421 165.62109375 100.53515625 C151.78290108 108.44944565 136.44142144 113.46717782 121.0625 117.4375 C120.37720215 117.62521973 119.6919043 117.81293945 118.98583984 118.00634766 C105.03129437 121.81436083 90.93084367 123.91289137 76.6184082 125.82592773 C75.86990601 125.92665085 75.12140381 126.02737396 74.35021973 126.13114929 C72.93030178 126.32099447 71.50990229 126.50728143 70.08898926 126.68952942 C66.46025082 127.15357003 66.46025082 127.15357003 63.0625 128.4375 C58.40599415 128.95498263 53.72273308 129.19335783 49.046875 129.48046875 C48.33755577 129.5247167 47.62823654 129.56896465 46.89742279 129.61455345 C31.78491167 130.53889939 16.69860951 130.7800954 1.56103516 130.75317383 C-1.2786432 130.74851902 -4.11789545 130.75558763 -6.95751953 130.77368164 C-32.81619362 130.93631852 -58.07119871 128.97190211 -83.5 124.0625 C-85.13532944 123.75411938 -86.77066481 123.44577022 -88.40600586 123.13745117 C-99.38890154 121.04244319 -110.22233499 118.6520495 -120.9375 115.4375 C-122.12085938 115.10105469 -123.30421875 114.76460937 -124.5234375 114.41796875 C-145.41730481 108.30566025 -169.84772657 98.36018069 -180.9375 78.4375 C-181.55625 77.53 -182.175 76.6225 -182.8125 75.6875 C-185.46284606 68.03094473 -184.86966534 60.50716194 -181.5 53.1875 C-169.16394473 31.40620519 -140.8334448 21.04809131 -117.95410156 14.59619141 C-101.05438517 10.0475078 -84.13064672 6.82762524 -66.8125 4.375 C-65.10767456 4.13112549 -65.10767456 4.13112549 -63.3684082 3.88232422 C-59.56241992 3.36056333 -55.75311794 2.8821926 -51.9375 2.4375 C-51.17214935 2.34775909 -50.40679871 2.25801819 -49.61825562 2.16555786 C-33.09529775 0.29381574 -16.61673064 -0.00467924 0 0 Z M-158.1796875 57.5546875 C-160.98604269 60.56060573 -161.48012276 63.09474935 -161.390625 67.2265625 C-160.05914293 73.72327675 -153.64535943 77.86638561 -148.5625 81.5 C-130.74524738 92.74262065 -108.50217746 98.77207616 -87.9375 102.4375 C-86.87619873 102.63126221 -85.81489746 102.82502441 -84.72143555 103.0246582 C-81.06738156 103.68134717 -77.409424 104.31147101 -73.75 104.9375 C-71.96045898 105.25654297 -71.96045898 105.25654297 -70.13476562 105.58203125 C-49.60034411 109.07770823 -29.1072288 109.76447954 -8.30615234 109.69824219 C-4.33805873 109.68756875 -0.37042334 109.69817998 3.59765625 109.7109375 C21.17872748 109.72004545 38.54527706 108.88949735 56.0625 107.4375 C57.04786743 107.3574321 58.03323486 107.2773642 59.04846191 107.19487 C71.12209717 106.20573061 82.83090627 104.32201639 94.69775391 101.89599609 C96.75102759 101.49789079 98.81839344 101.17384695 100.88671875 100.86328125 C122.66070033 97.54422027 152.07720583 89.4613664 167.0625 72.4375 C169.11692485 68.92229903 169.62460094 66.53280688 169.0625 62.4375 C163.45968318 52.16566916 152.36381551 47.06185633 142.0625 42.4375 C141.46066895 42.16437988 140.85883789 41.89125977 140.23876953 41.60986328 C112.7379939 29.36478843 81.22112199 24.67436412 51.37646484 22.67114258 C49.0625 22.4375 49.0625 22.4375 46.57055664 21.93261719 C42.13287399 21.0565712 37.6364914 21.0431559 33.125 20.875 C31.45546265 20.8123999 31.45546265 20.8123999 29.75219727 20.74853516 C19.33536801 20.40423523 8.9217686 20.32804395 -1.5 20.3125 C-2.68600296 20.30861771 -2.68600296 20.30861771 -3.89596558 20.30465698 C-51.67024139 20.18129254 -121.31490011 22.63655555 -158.1796875 57.5546875 Z " fill="#318241" transform="translate(617.9375,582.5625)"/>
<path d="M0 0 C0.95973099 -0.00768229 1.91946198 -0.01536458 2.90827572 -0.02327967 C3.95981394 -0.0215467 5.01135216 -0.01981374 6.09475517 -0.01802826 C7.77376358 -0.02694163 7.77376358 -0.02694163 9.48669136 -0.03603506 C13.25132946 -0.0534295 17.01584052 -0.05642726 20.78051567 -0.0594101 C23.47421178 -0.0686651 26.16789629 -0.07867299 28.86158562 -0.08950043 C36.19029219 -0.11665921 43.51897687 -0.12871574 50.84772539 -0.13752174 C55.42553515 -0.1430489 60.00333647 -0.15152413 64.58114052 -0.16053009 C77.26009211 -0.18491625 89.93903694 -0.20551351 102.61801147 -0.21228027 C103.42944846 -0.21271941 104.24088545 -0.21315854 105.07691144 -0.21361098 C105.89027515 -0.21404753 106.70363885 -0.21448409 107.54164994 -0.21493387 C109.18979399 -0.2158208 110.83793803 -0.21671393 112.48608208 -0.21761322 C113.30361603 -0.21805608 114.12114998 -0.21849894 114.96345769 -0.21895522 C128.20322903 -0.22684712 141.44277993 -0.26174219 154.68246616 -0.30833226 C168.28121909 -0.35579878 181.87986152 -0.38068582 195.47869861 -0.38301611 C203.11160337 -0.38484763 210.74422105 -0.39630133 218.37704659 -0.43265533 C224.87836869 -0.46351124 231.37931505 -0.47366721 237.88069649 -0.45717913 C241.19575308 -0.44938358 244.50944082 -0.45441997 247.82450485 -0.47929382 C251.42540831 -0.50472454 255.02438194 -0.492987 258.62527275 -0.47212982 C260.18250358 -0.49629904 260.18250358 -0.49629904 261.77119362 -0.52095652 C269.21817597 -0.42032993 274.38259625 1.63428918 280.24096489 6.26285553 C284.10587424 10.4369786 285.54316199 14.05985554 285.80346489 19.76285553 C285.47716553 25.97113013 283.85154939 30.54547439 279.52221489 35.05191803 C275.33014646 38.79991141 272.28226885 40.38393953 266.56815624 40.39986992 C265.60221611 40.40494446 264.63627598 40.410019 263.64106494 40.41524732 C262.57746775 40.41574508 261.51387055 40.41624284 260.41804314 40.41675568 C259.28998038 40.42113793 258.16191763 40.42552018 256.99967116 40.43003523 C253.19964828 40.44344639 249.3996486 40.4496073 245.59960747 40.45572662 C242.88311291 40.46309833 240.16662322 40.47188937 237.45013237 40.4805069 C229.28368819 40.5050286 221.11723793 40.51965762 212.95076826 40.53256696 C210.64419176 40.53627904 208.33761586 40.54025225 206.03103995 40.54431963 C191.70740689 40.56955605 177.38377288 40.59160908 163.06012249 40.60404778 C159.74239219 40.60697747 156.42466191 40.60993913 153.10693169 40.61295319 C151.87002373 40.61407226 151.87002373 40.61407226 150.60812774 40.61521395 C137.25058094 40.62786707 123.89316728 40.66108969 110.53568272 40.70275502 C96.82171772 40.74518162 83.10782087 40.76874363 69.39379042 40.77396834 C61.69389613 40.77738162 53.99420988 40.78912682 46.29438019 40.82207108 C39.73665633 40.85008278 33.17918318 40.8610661 26.62140415 40.84987561 C23.27635882 40.84469153 19.93226333 40.85028777 16.58722305 40.87234116 C12.95731144 40.89497049 9.32872269 40.88676462 5.69880486 40.87085724 C4.64636127 40.88473933 3.59391768 40.89862141 2.50958186 40.91292417 C-4.12661831 40.84126019 -8.67693294 39.66365208 -13.75903511 35.26285553 C-18.56324684 29.94618114 -19.45544077 25.20400932 -19.10669136 18.09488678 C-18.29281155 11.46496699 -15.72006786 7.7254438 -10.57544136 3.52457428 C-7.01036985 1.04819127 -4.36884821 0.01314694 0 0 Z " fill="#2B7A3A" transform="translate(488.75903511047363,754.7371444702148)"/>
<path d="M0 0 C-4.89925626 2.70520731 -9.67447582 4.16909363 -15.0625 5.5 C-16.18881836 5.79970703 -16.18881836 5.79970703 -17.33789062 6.10546875 C-36.027328 10.78901491 -54.69913687 11.44376699 -73.8768079 11.3792013 C-77.45235671 11.37056779 -81.02787278 11.3796224 -84.6034199 11.38626546 C-90.84889701 11.39549732 -97.09429333 11.39375768 -103.33976936 11.38453293 C-112.62670218 11.37085383 -121.91357372 11.37452432 -131.20051113 11.38149153 C-147.78889068 11.39338072 -164.37723207 11.38836158 -180.96560949 11.37621326 C-195.47397979 11.36566082 -209.98233711 11.36113986 -224.49071121 11.36250877 C-225.93644766 11.36263482 -225.93644766 11.36263482 -227.41139091 11.36276341 C-231.32409686 11.36311567 -235.23680281 11.36349969 -239.14950876 11.36392899 C-275.80859828 11.367889 -312.46766485 11.35519761 -349.1267478 11.33440243 C-381.69615796 11.31601411 -414.26554615 11.31022574 -446.83496094 11.31567383 C-448.92835579 11.31602026 -451.02175064 11.31636636 -453.11514549 11.31671212 C-454.66755435 11.31696861 -454.66755435 11.31696861 -456.251325 11.31723029 C-461.46108014 11.31808383 -466.67083529 11.31890761 -471.88059044 11.31969929 C-473.42231019 11.31993491 -473.42231019 11.31993491 -474.9951758 11.32017529 C-502.22328094 11.32416319 -529.45138396 11.31869313 -556.67948782 11.310188 C-559.60808201 11.30928096 -562.5366762 11.30837531 -565.46527039 11.30747276 C-567.40795961 11.30687166 -569.35064882 11.30626304 -571.29333804 11.30564686 C-584.84072466 11.3014242 -598.38810714 11.30084771 -611.93549421 11.30275235 C-629.38220959 11.30519301 -646.8289027 11.30114091 -664.27561198 11.28554235 C-673.50355402 11.27748234 -682.73145896 11.27489784 -691.95940322 11.2801847 C-698.1186862 11.28315594 -704.27793632 11.27887837 -710.43721144 11.26863613 C-713.94901905 11.26299637 -717.46075088 11.26052468 -720.97255914 11.26680271 C-724.75245563 11.27188124 -728.53213615 11.26475923 -732.31201744 11.25447559 C-733.40585432 11.25887208 -734.4996912 11.26326856 -735.62667465 11.26779827 C-741.14803177 11.23900975 -745.78479626 10.85313426 -751 9 C-747.54019248 6.82160267 -745.89540529 7.1740047 -742 8 C-740.31734973 8.08624077 -738.63183678 8.12521668 -736.94697791 8.12534916 C-735.44392941 8.12910444 -735.44392941 8.12910444 -733.91051629 8.13293558 C-732.81469844 8.13059442 -731.7188806 8.12825325 -730.58985615 8.12584114 C-729.41703993 8.12729458 -728.24422371 8.12874802 -727.0358676 8.13024551 C-723.76983626 8.1332737 -720.50384203 8.13180455 -717.2378121 8.12846755 C-713.68855089 8.12593636 -710.13929428 8.12918859 -706.59003371 8.13171089 C-700.36581793 8.13532798 -694.14161082 8.13520969 -687.91739464 8.13266373 C-678.6616402 8.128888 -669.4058931 8.1308115 -660.15013871 8.13387203 C-643.61988347 8.13914427 -627.08963208 8.13867872 -610.55937647 8.13579312 C-596.09053999 8.13327972 -581.62170492 8.13261985 -567.15286827 8.13381577 C-565.71445321 8.13393034 -565.71445321 8.13393034 -564.24697926 8.13404724 C-560.35447374 8.13435857 -556.46196823 8.13467696 -552.56946271 8.135007 C-516.03285922 8.13806793 -479.49625818 8.13528969 -442.95965507 8.1299101 C-410.49352849 8.12516618 -378.02740584 8.12558731 -345.5612793 8.13037109 C-309.09997599 8.13572557 -272.63867485 8.13784898 -236.1773712 8.13475883 C-232.29031766 8.13443811 -228.40326411 8.13412527 -224.51621056 8.13381577 C-223.559094 8.13373669 -222.60197745 8.13365761 -221.61585737 8.13357614 C-207.15898725 8.13243841 -192.7021187 8.13376945 -178.24524879 8.13629532 C-161.80409168 8.13915352 -145.36293903 8.13844208 -128.92178247 8.13301457 C-119.71900113 8.13007683 -110.51622948 8.12988872 -101.31344839 8.13366075 C-95.16654558 8.13590242 -89.01965053 8.13450883 -82.87274887 8.13015598 C-79.37020317 8.12777671 -75.86767669 8.12696493 -72.36513159 8.13056196 C-68.58985236 8.13359526 -64.81462602 8.13049093 -61.03934956 8.12584114 C-59.41318153 8.12935289 -59.41318153 8.12935289 -57.75416163 8.13293558 C-49.2775476 8.11201856 -41.01268503 7.54122939 -32.6953125 5.84375 C-31.07882812 5.51697266 -31.07882812 5.51697266 -29.4296875 5.18359375 C-28.33914063 4.95800781 -27.24859375 4.73242188 -26.125 4.5 C-25.01125 4.27441406 -23.8975 4.04882812 -22.75 3.81640625 C-17.23269648 2.69300349 -11.80939867 1.57138905 -6.4375 -0.125 C-3 -1 -3 -1 0 0 Z " fill="#286135" transform="translate(1022,1168)"/>
<path d="M0 0 C-0.33 0.66 -0.66 1.32 -1 2 C-3.91405598 2.81386291 -6.8014381 3.5225204 -9.75 4.1875 C-32.12775419 9.53484328 -63.73033372 17.70617668 -80.54321289 34.5456543 C-82 36 -82 36 -85.125 37.6875 C-89.10602297 39.88622398 -92.23400102 42.75360194 -95.5703125 45.8203125 C-98.01442043 48.01293666 -100.54436096 50.03321411 -103.125 52.0625 C-114.28823305 61.1404662 -124.2032415 71.63361269 -133 83 C-134.33302484 84.66691341 -135.66633945 86.33359516 -137 88 C-141.52790667 93.72507571 -145.3431033 99.68833695 -149 106 C-149.61875 107.02867187 -150.2375 108.05734375 -150.875 109.1171875 C-157.39953814 120.15283209 -163.09732248 131.76414628 -167 144 C-167.45309464 145.30950828 -167.90905326 146.61802757 -168.3671875 147.92578125 C-171.53712725 157.1017574 -174.16078547 166.23517601 -176.23828125 175.71875 C-177 179 -177 179 -178 181 C-178.20379734 182.80870138 -178.36500995 184.62236592 -178.5 186.4375 C-178.73306642 189.56308718 -179.00474943 192.01424829 -180 195 C-180 196.32 -180 197.64 -180 199 C-180 203 -180 203 -181 206 C-181.01707817 207.44560867 -180.96948684 208.89243333 -180.88289738 210.33554745 C-180.81114289 211.69594586 -180.81114289 211.69594586 -180.73793882 213.08382708 C-180.68238547 214.09635198 -180.62683212 215.10887688 -180.56959534 216.15208435 C-180.04748458 227.30971584 -179.88997727 238.44166253 -179.87974548 249.60951233 C-179.87890867 250.45742737 -179.87807185 251.30534241 -179.87720968 252.17895184 C-179.87357607 257.66891309 -179.87792273 263.15885137 -179.88393438 268.64880931 C-179.88830952 273.67432003 -179.88678752 278.69982971 -179.8860321 283.7253418 C-179.88551129 292.40315627 -179.8886115 301.08096315 -179.89426994 309.75877571 C-179.90244541 322.30497213 -179.90500632 334.85116492 -179.90625793 347.39736371 C-179.90843902 367.75962151 -179.91507337 388.12187526 -179.92456055 408.48413086 C-179.93375918 428.24780253 -179.94082799 448.0114731 -179.94506836 467.77514648 C-179.94533108 468.99623358 -179.94559381 470.21732067 -179.94586449 471.47541041 C-179.94716966 477.60209783 -179.94843334 483.72878525 -179.94967639 489.85547268 C-179.96001959 540.57031791 -179.97761205 591.28515876 -180 642 C-180.33 642 -180.66 642 -181 642 C-181.33 726.81 -181.66 811.62 -182 899 C-182.33 899 -182.66 899 -183 899 C-183.05143811 832.56056778 -183.09913386 766.12113317 -183.12702942 699.6816864 C-183.12744359 698.69776932 -183.12785776 697.71385224 -183.12828448 696.70011949 C-183.137264 675.31500748 -183.14557443 653.92989525 -183.15319599 632.54478272 C-183.15693787 622.05695471 -183.16082755 611.56912675 -183.16479492 601.08129883 C-183.16538334 599.51583291 -183.16538334 599.51583291 -183.16598364 597.91874142 C-183.17875905 564.11425213 -183.20128654 530.30977791 -183.22889166 496.50529775 C-183.2572168 461.75584768 -183.27566268 427.00640594 -183.28174497 392.25694452 C-183.28260939 387.34457195 -183.2835863 382.43219942 -183.28463173 377.51982689 C-183.284834 376.55303744 -183.28503627 375.58624798 -183.28524467 374.59016188 C-183.2887846 359.0512065 -183.30268469 343.51227698 -183.3204961 327.97333212 C-183.33819658 312.33710782 -183.34489425 296.70090904 -183.34050413 281.06467507 C-183.33822897 271.78421446 -183.3442466 262.50384757 -183.36239263 253.22340395 C-183.37370642 247.0105114 -183.37394628 240.79767967 -183.36549544 234.5847828 C-183.36099981 231.05343138 -183.36101982 227.52225621 -183.37464955 223.99092428 C-183.43545268 204.87749239 -182.62814622 186.17487105 -177.625 167.625 C-177.41294922 166.8103125 -177.20089844 165.995625 -176.98242188 165.15625 C-173.86898179 153.4372248 -169.93366459 142.08384922 -165 131 C-164.72849121 130.37931641 -164.45698242 129.75863281 -164.17724609 129.11914062 C-157.24041155 113.35325935 -148.54844167 98.63418913 -138 85 C-137.37867188 84.18660156 -136.75734375 83.37320313 -136.1171875 82.53515625 C-124.96868494 68.24972686 -112.23103072 55.20356212 -98 44 C-96.57300781 42.83017578 -96.57300781 42.83017578 -95.1171875 41.63671875 C-70.39803536 21.8171428 -41.32334326 9.36939048 -11 1 C-10.33210449 0.81228027 -9.66420898 0.62456055 -8.97607422 0.43115234 C-5.98771705 -0.22086628 -3.04544413 -0.05856623 0 0 Z " fill="#4EB472" transform="translate(259,77)"/>
<path d="M0 0 C6.87326332 4.07583645 13.3337375 8.3337375 19 14 C-14.33 14 -47.66 14 -82 14 C-73.64730261 5.64730261 -64.84352923 0.19362604 -54.4375 -5.25 C-53.46828613 -5.75732666 -52.49907227 -6.26465332 -51.50048828 -6.78735352 C-30.30668543 -17.66818074 -20.18705345 -11.03967217 0 0 Z " fill="#378D4A" transform="translate(654,537)"/>
<path d="M0 0 C0.33 1.32 0.66 2.64 1 4 C1.66 4 2.32 4 3 4 C3.05144083 69.94863324 3.0991362 135.89726886 3.12702942 201.84591675 C3.12765068 203.31101225 3.12765068 203.31101225 3.12828448 204.80570565 C3.13726411 226.03488372 3.14557452 247.264062 3.15319599 268.4932406 C3.15693786 278.90467347 3.16082754 289.31610628 3.16479492 299.72753906 C3.1651872 300.76357803 3.16557948 301.79961701 3.16598364 302.8670511 C3.17875786 336.42204163 3.20128445 369.97701696 3.22889166 403.53199829 C3.25722017 438.02648451 3.27566346 472.52096233 3.28174497 507.01545999 C3.28260938 511.89237532 3.28358629 516.76929061 3.28463173 521.6462059 C3.284834 522.60601218 3.28503627 523.56581846 3.28524467 524.55470977 C3.28878388 539.97816845 3.30268201 555.40160106 3.3204961 570.82504912 C3.3382014 586.34702961 3.34489305 601.86898437 3.34050413 617.3909746 C3.33822988 626.6023499 3.3442384 635.81363074 3.36239263 645.02498891 C3.37371365 651.19310744 3.3739413 657.36116473 3.36549544 663.52928764 C3.36100352 667.03424638 3.36100403 670.53902761 3.37464955 674.04396667 C3.42573274 689.96766017 2.66686446 705.28683158 0 721 C-0.66 721 -1.32 721 -2 721 C-1.93941406 720.23300781 -1.87882812 719.46601562 -1.81640625 718.67578125 C-0.32573466 698.9301161 0.14827458 679.26444813 0.12226619 659.46411385 C0.11877731 655.93881876 0.121213 652.41352639 0.12284368 648.88823062 C0.12490133 642.73120092 0.12330146 636.57418096 0.11920547 630.4171524 C0.11313212 621.26209608 0.1128732 612.1070458 0.11374746 602.95198783 C0.11505681 587.54641194 0.11173734 572.14084037 0.10573006 556.73526573 C0.09980205 541.49375067 0.0959619 526.25223741 0.09487724 511.01072121 C0.0948085 510.06113085 0.09473976 509.11154049 0.09466894 508.13317467 C0.09433058 503.31019199 0.09402921 498.48720931 0.09374207 493.66422663 C0.09164468 459.55113359 0.08491578 425.43804289 0.07543945 391.32495117 C0.0662471 358.19571953 0.05916737 325.06648852 0.05493164 291.93725586 C0.05480011 290.91509555 0.05466859 289.89293525 0.05453308 288.83980039 C0.0532145 278.57434006 0.05193869 268.30887973 0.05069422 258.04341939 C0.04815837 237.13366729 0.04533712 216.22391524 0.04234314 195.31416321 C0.0421372 193.87223974 0.0421372 193.87223974 0.04192711 192.4011865 C0.03273485 128.2674567 0.01689065 64.13372819 0 0 Z " fill="#346E42" transform="translate(1174,274)"/>
<path d="M0 0 C5.53069722 3.22341249 9.41020018 7.25094259 11.625 13.3125 C12.65821741 19.97801232 11.20576264 25.63190741 7.625 31.3125 C3.96826205 35.4417378 -0.96802799 38.79225474 -6.47265625 39.6328125 C-12.23432647 39.92929639 -16.68771125 38.69721587 -21.375 35.3125 C-26.51624152 30.39925145 -29.64769165 25.87045376 -29.875 18.625 C-29.74691373 12.06057867 -27.87763542 8.03689262 -23.375 3.3125 C-16.74385872 -2.84189256 -8.20962353 -3.7795248 0 0 Z " fill="#358848" transform="translate(436.375,756.6875)"/>
<path d="M0 0 C4.94454224 3.56408629 7.7567497 7.60273782 8.84375 13.6328125 C9.18466112 20.55593072 7.92855659 25.4524423 3.30859375 30.6640625 C-2.93599276 36.31392648 -7.64974538 37.35963641 -15.94140625 37.109375 C-22.0892943 36.37931329 -25.21750479 33.69822988 -29.01953125 29.03515625 C-32.91533649 23.56182424 -33.53523334 18.1915985 -32.69140625 11.6640625 C-30.40411086 5.82786933 -25.92639049 1.04864963 -20.69140625 -2.3359375 C-13.33621042 -4.72894532 -6.69384345 -3.73852723 0 0 Z " fill="#276F33" transform="translate(829.69140625,758.3359375)"/>
<path d="M0 0 C1.18096209 -0.00115384 2.36192418 -0.00230769 3.57867301 -0.0034965 C6.85349637 -0.00568558 10.12828118 -0.00339848 13.40310147 0.00078164 C16.9669584 0.00422343 20.53081226 0.00184359 24.09466982 0.00020415 C30.33956406 -0.00186788 36.58444876 -0.00022873 42.82934189 0.00384235 C52.11525964 0.00987908 61.40117138 0.010178 70.68709073 0.00930037 C86.30772 0.00798659 101.92834504 0.01132742 117.54897308 0.01731777 C133.01614655 0.02323407 148.48331826 0.02708357 163.95049286 0.02817059 C164.91206761 0.02823933 165.87364235 0.02830806 166.86435573 0.02837889 C171.74767523 0.02871722 176.63099473 0.0290186 181.51431423 0.02930576 C216.10603297 0.03140637 250.69774941 0.03814428 285.28946686 0.04760838 C318.89558653 0.0567922 352.50170556 0.06387611 386.10782623 0.06811619 C387.14364883 0.06824771 388.17947142 0.06837924 389.24668258 0.06851475 C399.64880516 0.06983327 410.05092775 0.07110908 420.45305034 0.07235361 C441.64351767 0.07488985 462.83398495 0.0777111 484.02445221 0.08070469 C485.4859187 0.08091062 485.4859187 0.08091062 486.97690976 0.08112072 C552.04366152 0.09032193 617.11041201 0.1061672 682.17716217 0.12304783 C682.17716217 0.45304783 682.17716217 0.78304783 682.17716217 1.12304783 C681.58159789 1.12478408 680.98603361 1.12652033 680.37242192 1.12830919 C645.09991528 1.23126462 609.82742806 1.33936135 574.55495794 1.45416477 C570.32282496 1.46793488 566.09069185 1.4816619 561.85855865 1.49536228 C561.01599222 1.49809059 560.17342579 1.50081889 559.30532704 1.50362987 C545.65005745 1.54774398 531.99477959 1.58836414 518.3394955 1.62770044 C504.33522463 1.66811955 490.33096917 1.71227629 476.32672101 1.75992638 C467.68048605 1.78922707 459.03425226 1.8155879 450.38799725 1.8382268 C444.46457996 1.85401522 438.54118153 1.87342342 432.61778518 1.89571624 C429.19673933 1.90848333 425.77570802 1.91961793 422.35464478 1.92646694 C418.65097601 1.93471122 414.94737914 1.94898324 411.24373627 1.96482944 C409.61097292 1.96629661 409.61097292 1.96629661 407.94522446 1.96779341 C406.46278842 1.97600507 406.46278842 1.97600507 404.95040417 1.98438263 C403.66713931 1.98836969 403.66713931 1.98836969 402.35794991 1.9924373 C399.9964893 2.03941337 399.9964893 2.03941337 397.17716217 3.12304783 C395.82691058 3.21326598 394.47262392 3.24932042 393.11936188 3.25003147 C391.86675992 3.25426451 391.86675992 3.25426451 390.58885288 3.25858307 C389.66570003 3.25655663 388.74254717 3.2545302 387.79141998 3.25244236 C386.80336837 3.25417485 385.81531675 3.25590734 384.79732418 3.25769234 C381.40829585 3.26213662 378.01931642 3.25905568 374.63028717 3.25586033 C372.12587724 3.25684089 369.62146742 3.25813875 367.1170578 3.2597208 C360.80729308 3.26211095 354.49754913 3.25897437 348.187787 3.25336236 C342.92568945 3.24879704 337.66359628 3.24689224 332.40149689 3.24636936 C284.80308225 3.2397498 237.20531585 3.07467575 189.60736799 2.87974358 C185.11214601 2.86134304 180.61692321 2.84314558 176.12170029 2.82497501 C147.39031018 2.70874028 118.65893802 2.58996793 89.92763406 2.45392996 C78.31207152 2.39901833 66.69649698 2.34741462 55.08090895 2.29819292 C48.25503417 2.26911985 41.42917826 2.23813797 34.60333443 2.20247936 C28.28327354 2.16957573 21.96320934 2.14115637 15.64311171 2.11633372 C13.33111808 2.10640148 11.01913122 2.09472469 8.7071557 2.08121991 C5.57574283 2.06315413 2.4443659 2.05115001 -0.68708038 2.04075718 C-1.60924416 2.03395335 -2.53140793 2.02714952 -3.48151606 2.02013952 C-5.59556488 2.0163355 -7.70961754 2.06374438 -9.82283783 2.12304783 C-10.15283783 2.45304783 -10.48283783 2.78304783 -10.82283783 3.12304783 C-13.49342634 3.26419944 -16.14716021 3.1655189 -18.82283783 3.12304783 C-19.15283783 2.46304783 -19.48283783 1.80304783 -19.82283783 1.12304783 C-13.18358864 0.12075015 -6.70788259 -0.01613118 0 0 Z " fill="#61CA8D" transform="translate(291.82283782958984,72.87695217132568)"/>
<path d="M0 0 C-4.98567486 2.76713022 -9.8843338 4.21324327 -15.375 5.5625 C-16.16777344 5.77068359 -16.96054687 5.97886719 -17.77734375 6.19335938 C-33.0300244 10.00056214 -48.200156 10.28752908 -63.81713867 10.24050903 C-65.99234346 10.24138267 -68.16754804 10.24313656 -70.3427515 10.24568737 C-76.28105392 10.25013377 -82.21928342 10.24219466 -88.15757656 10.23213124 C-94.57589645 10.2234598 -100.99421252 10.22641951 -107.41253662 10.22793579 C-118.51981532 10.22932686 -129.62707193 10.22280034 -140.73434448 10.21146011 C-152.37669995 10.19960419 -164.01904601 10.19192381 -175.66140747 10.18975449 C-176.38675335 10.18961701 -177.11209923 10.18947953 -177.85942528 10.18933788 C-181.54346547 10.18866117 -185.22750567 10.18805842 -188.91154587 10.18748413 C-214.96903176 10.18328933 -241.02650539 10.16983145 -267.08398438 10.15087891 C-292.3899733 10.13249426 -317.69595886 10.11833477 -343.00195312 10.10986328 C-344.17312444 10.1094687 -344.17312444 10.1094687 -345.36795579 10.10906615 C-353.20926341 10.10642899 -361.05057105 10.10387738 -368.89187872 10.10138843 C-384.8638731 10.09631674 -400.83586726 10.09067424 -416.80786133 10.08468628 C-417.90928066 10.08427441 -417.90928066 10.08427441 -419.03295089 10.08385422 C-468.02197247 10.06546963 -517.01098685 10.03373946 -566 10 C-566 9.67 -566 9.34 -566 9 C-560.31690994 8.18718822 -554.83038615 7.85866864 -549.09430885 7.87974548 C-548.22869186 7.87889124 -547.36307486 7.87803699 -546.47122705 7.87715685 C-543.57467904 7.87551434 -540.67818941 7.8810116 -537.78164673 7.88647461 C-535.68234584 7.88675468 -533.58304485 7.88659153 -531.48374403 7.88602352 C-525.71771547 7.88572799 -519.95170751 7.89166263 -514.18568373 7.89859343 C-507.96608057 7.90496686 -501.74647664 7.90553653 -495.52687073 7.9067688 C-484.74960571 7.90965594 -473.9723489 7.91607627 -463.19508743 7.92483521 C-447.60207389 7.93744709 -432.00906268 7.94348276 -416.41604488 7.94776857 C-409.14888608 7.94977476 -401.88172738 7.95210226 -394.61456871 7.95451355 C-393.88709428 7.95475456 -393.15961985 7.95499558 -392.41010074 7.95524389 C-375.09924567 7.96105369 -357.78839245 7.97001016 -340.47753906 7.97949219 C-339.34158269 7.98011266 -339.34158269 7.98011266 -338.1826777 7.98074566 C-325.8941637 7.98746205 -313.60564981 7.99436932 -301.31713593 8.001302 C-289.80582504 8.0077944 -278.29451412 8.01421772 -266.78320312 8.02050781 C-265.6483157 8.0211297 -265.6483157 8.0211297 -264.49050126 8.02176414 C-247.21334052 8.03121445 -229.93617997 8.03976292 -212.65901756 8.04548645 C-211.93265502 8.04572744 -211.20629248 8.04596844 -210.45791895 8.04621673 C-203.20585893 8.04860225 -195.95379887 8.05083018 -188.70173873 8.05282298 C-173.12760254 8.05713745 -157.55347453 8.06420736 -141.97934276 8.07687083 C-130.62572336 8.08606059 -119.2721078 8.09174071 -107.91848446 8.09398818 C-101.76847534 8.0953339 -95.6184785 8.09834693 -89.46847343 8.10574722 C-83.83804457 8.11249673 -78.20763347 8.11463217 -72.57720093 8.11311162 C-70.54093545 8.11338298 -68.50466933 8.11535477 -66.46840747 8.1192044 C-63.69804075 8.12419855 -60.92774179 8.12297935 -58.15737343 8.12025452 C-57.36931852 8.12316738 -56.5812636 8.12608024 -55.76932824 8.12908137 C-47.99045441 8.10843124 -40.32190083 7.40024833 -32.6953125 5.84375 C-31.07882812 5.51697266 -31.07882812 5.51697266 -29.4296875 5.18359375 C-28.33914063 4.95800781 -27.24859375 4.73242188 -26.125 4.5 C-25.01125 4.27441406 -23.8975 4.04882812 -22.75 3.81640625 C-17.23269648 2.69300349 -11.80939867 1.57138905 -6.4375 -0.125 C-3 -1 -3 -1 0 0 Z " fill="#145423" transform="translate(1022,1168)"/>
<path d="M0 0 C-7.39412097 3.4659942 -15.48104578 3.14568044 -23.47618103 3.12698364 C-25.02847762 3.12932575 -25.02847762 3.12932575 -26.61213374 3.13171518 C-30.08250151 3.13570473 -33.55282527 3.13254516 -37.02319336 3.12939453 C-39.53259462 3.13073079 -42.04199568 3.13248977 -44.55139637 3.13463593 C-50.719713 3.13869812 -56.88801395 3.13801221 -63.05633079 3.13516669 C-68.17508001 3.13293898 -73.29382529 3.13290901 -78.41257477 3.13431931 C-79.15095531 3.13452155 -79.88933585 3.13472378 -80.65009157 3.13493215 C-82.1555106 3.13535287 -83.66092962 3.13577754 -85.16634865 3.13620608 C-100.390033 3.14024183 -115.61371017 3.13668445 -130.8373934 3.13056505 C-141.71903571 3.12622152 -152.60067672 3.12367758 -163.48231982 3.12257662 C-247.84504903 3.11377865 -332.20699981 2.98965187 -585 2 C-585 1.67 -585 1.34 -585 1 C-583.79058715 0.99826375 -582.5811743 0.9965275 -581.33511257 0.99473864 C-528.04160063 0.91816494 -474.74809059 0.84036973 -421.45458984 0.7563324 C-420.64791469 0.75506072 -419.84123953 0.75378904 -419.01011968 0.75247882 C-401.47944002 0.7248353 -383.94876071 0.69697226 -366.41808176 0.66888306 C-357.82120171 0.65510971 -349.22432158 0.64138488 -340.62744141 0.62768555 C-339.77194262 0.62632146 -338.91644382 0.62495738 -338.03502083 0.62355196 C-310.2994059 0.57935056 -282.56378735 0.53835351 -254.82816513 0.49901587 C-226.32928223 0.45857879 -197.83040605 0.41491353 -169.3315344 0.36717889 C-165.30745894 0.36044021 -161.28338342 0.35373848 -157.25930786 0.34705925 C-156.0712991 0.34508566 -156.0712991 0.34508566 -154.85929016 0.3430722 C-142.10356267 0.32197669 -129.34783261 0.30429027 -116.59209833 0.28787469 C-103.77229877 0.27130406 -90.95250882 0.25115145 -78.13272065 0.22733159 C-70.51368103 0.21328415 -62.89464889 0.20199408 -55.27559981 0.19463562 C-49.58973626 0.18884196 -43.90389192 0.1779112 -38.21804059 0.1649667 C-35.91508978 0.16052983 -33.61213503 0.1577713 -31.30918014 0.15683801 C-28.18380366 0.15532877 -25.05849826 0.14776036 -21.93313599 0.1386652 C-20.58572524 0.1401992 -20.58572524 0.1401992 -19.21109408 0.14176419 C-15.26983284 0.12448052 -11.44465711 -0.01362474 -7.535429 -0.53601032 C-4.50137558 -0.93419947 -2.80881427 -1.05330535 0 0 Z " fill="#166528" transform="translate(919,915)"/>
<path d="M0 0 C-0.33 0.66 -0.66 1.32 -1 2 C-3.91405598 2.81386291 -6.8014381 3.5225204 -9.75 4.1875 C-32.12775419 9.53484328 -63.73033372 17.70617668 -80.54321289 34.5456543 C-82 36 -82 36 -85.125 37.6875 C-89.10602297 39.88622398 -92.23400102 42.75360194 -95.5703125 45.8203125 C-98.01442043 48.01293666 -100.54436096 50.03321411 -103.125 52.0625 C-114.28823305 61.1404662 -124.2032415 71.63361269 -133 83 C-134.33302484 84.66691341 -135.66633945 86.33359516 -137 88 C-141.52790667 93.72507571 -145.3431033 99.68833695 -149 106 C-149.61875 107.02867187 -150.2375 108.05734375 -150.875 109.1171875 C-157.39953814 120.15283209 -163.09732248 131.76414628 -167 144 C-167.45309464 145.30950828 -167.90905326 146.61802757 -168.3671875 147.92578125 C-171.53712725 157.1017574 -174.16078547 166.23517601 -176.23828125 175.71875 C-177 179 -177 179 -178 181 C-178.20379734 182.80870138 -178.36500995 184.62236592 -178.5 186.4375 C-178.73306642 189.56308718 -179.00474943 192.01424829 -180 195 C-180.04278083 196.37433431 -180.04057273 197.75059873 -180 199.125 C-180 200.40375 -180 201.6825 -180 203 C-180.33 203.33 -180.66 203.66 -181 204 C-181.23363881 205.84891946 -181.41303635 207.70488031 -181.5625 209.5625 C-181.64628906 210.57441406 -181.73007813 211.58632813 -181.81640625 212.62890625 C-181.87699219 213.41136719 -181.93757813 214.19382812 -182 215 C-182.33 215 -182.66 215 -183 215 C-184.10249574 186.13094493 -176.69065518 157.26393766 -165 131 C-164.72849121 130.37931641 -164.45698242 129.75863281 -164.17724609 129.11914062 C-157.24041155 113.35325935 -148.54844167 98.63418913 -138 85 C-137.37867188 84.18660156 -136.75734375 83.37320313 -136.1171875 82.53515625 C-124.96868494 68.24972686 -112.23103072 55.20356212 -98 44 C-96.57300781 42.83017578 -96.57300781 42.83017578 -95.1171875 41.63671875 C-70.39803536 21.8171428 -41.32334326 9.36939048 -11 1 C-10.33210449 0.81228027 -9.66420898 0.62456055 -8.97607422 0.43115234 C-5.98771705 -0.22086628 -3.04544413 -0.05856623 0 0 Z " fill="#71E4A7" transform="translate(259,77)"/>
<path d="M0 0 C2.43606196 0.00066075 4.87212391 0.00130339 7.30818588 0.00194407 C48.41057127 0.01287492 89.51294795 0.03292758 130.61532384 0.06315851 C130.61532384 0.39315851 130.61532384 0.72315851 130.61532384 1.06315851 C130.01975956 1.06489476 129.42419528 1.06663101 128.81058359 1.06841987 C93.53807695 1.1713753 58.26558973 1.27947204 22.99311961 1.39427545 C18.76098664 1.40804557 14.52885352 1.42177258 10.29672033 1.43547297 C9.45415389 1.43820127 8.61158746 1.44092957 7.74348871 1.44374055 C-5.91178088 1.48785466 -19.56705874 1.52847482 -33.22234283 1.56781112 C-47.2266137 1.60823024 -61.23086916 1.65238697 -75.23511732 1.70003706 C-83.88135228 1.72933775 -92.52758606 1.75569858 -101.17384108 1.77833749 C-107.09725837 1.7941259 -113.02065679 1.81353411 -118.94405315 1.83582693 C-122.365099 1.84859401 -125.7861303 1.85972861 -129.20719355 1.86657763 C-132.91086232 1.87482191 -136.61445919 1.88909392 -140.31810206 1.90494013 C-141.9508654 1.90640729 -141.9508654 1.90640729 -143.61661386 1.90790409 C-145.09904991 1.91611575 -145.09904991 1.91611575 -146.61143416 1.92449331 C-147.89469902 1.92848038 -147.89469902 1.92848038 -149.20388842 1.93254799 C-151.56534903 1.97952405 -151.56534903 1.97952405 -154.38467616 3.06315851 C-156.09419553 3.15547485 -157.80712659 3.18944462 -159.51913661 3.19014215 C-161.11918166 3.19437567 -161.11918166 3.19437567 -162.75155085 3.19869471 C-164.5127262 3.19565458 -164.5127262 3.19565458 -166.30948085 3.19255304 C-167.55091098 3.1942827 -168.79234111 3.19601236 -170.07139033 3.19779444 C-173.5087103 3.20141488 -176.94597178 3.20047458 -180.38328856 3.19738293 C-183.30567074 3.19548433 -186.2280467 3.19708513 -189.15042871 3.19871986 C-197.01418016 3.20309435 -204.87791353 3.20014844 -212.74166292 3.19372356 C-218.47463712 3.18907683 -224.20760847 3.18667966 -229.94058436 3.18547297 C-287.09308882 3.17111446 -344.23656018 2.80078308 -401.38467616 2.06315851 C-401.38467616 1.73315851 -401.38467616 1.40315851 -401.38467616 1.06315851 C-367.2076532 0.88668572 -333.0305677 0.72433891 -298.85342801 0.57220286 C-296.83013494 0.56319395 -294.80684198 0.55416352 -292.78354901 0.54513264 C-216.43002507 0.20481581 -140.07728887 0.00730029 0 0 Z " fill="#50B474" transform="translate(843.3846761584282,72.93684148788452)"/>
<path d="M0 0 C0.33 0 0.66 0 1 0 C2.18196494 21.69694278 2.13274775 43.37243834 2.10139394 65.09365964 C2.09505678 70.23984214 2.09454854 75.3860255 2.09336853 80.5322113 C2.09028529 90.23535929 2.08211331 99.93849574 2.07201904 109.6416387 C2.06076339 120.70609342 2.05532386 131.77054875 2.05032361 142.83500779 C2.03992748 165.5566782 2.02238756 188.27833845 2 211 C1.34 211 0.68 211 0 211 C0 241.03 0 271.06 0 302 C-0.33 302 -0.66 302 -1 302 C-1.02289381 264.82672911 -1.0405122 227.65345928 -1.05106533 190.48018277 C-1.05231602 186.09054827 -1.05361035 181.70091378 -1.05493164 177.3112793 C-1.05532511 176.0004453 -1.05532511 176.0004453 -1.05572652 174.6631298 C-1.06007665 160.51721458 -1.06796059 146.37130343 -1.0771528 132.22539062 C-1.08650759 117.70807811 -1.09205949 103.19076772 -1.09408849 88.67345232 C-1.09545992 79.71705788 -1.09978997 70.76067493 -1.10791647 61.80428403 C-1.11320644 55.66077593 -1.11479916 49.51727378 -1.11350138 43.37376357 C-1.11286152 39.83044949 -1.11383563 36.28715549 -1.11920547 32.74384499 C-1.1249914 28.89779052 -1.1229835 25.05176207 -1.12025452 21.20570374 C-1.12316736 20.09187146 -1.1260802 18.97803918 -1.12908131 17.83045441 C-1.11752585 11.80299155 -0.7876802 5.97719603 0 0 Z " fill="#59CC8A" transform="translate(77,283)"/>
<path d="M0 0 C0.33 0 0.66 0 1 0 C1.144375 1.093125 1.28875 2.18625 1.4375 3.3125 C1.88288104 6.93122987 1.88288104 6.93122987 3 10 C3.09017886 11.38486882 3.12627229 12.77366687 3.12698364 14.16146851 C3.12980347 15.00819626 3.13262329 15.85492401 3.13552856 16.72731018 C3.13350433 17.65309372 3.1314801 18.57887726 3.12939453 19.53271484 C3.13114685 20.51023209 3.13289917 21.48774933 3.13470459 22.49488831 C3.13911386 25.73358931 3.13618788 28.97223591 3.1328125 32.2109375 C3.13348591 34.45911672 3.13445625 36.70729588 3.13571167 38.95547485 C3.13718748 43.67149548 3.13503822 48.38749719 3.13037109 53.10351562 C3.12468043 59.1485209 3.12794936 65.19348171 3.13394356 71.23848534 C3.13755789 75.88300918 3.13640644 80.5275225 3.13381577 85.17204666 C3.13314858 87.40078359 3.13396767 89.62952148 3.13629532 91.85825729 C3.13883538 94.97502929 3.13496176 98.09172945 3.12939453 101.20849609 C3.13141876 102.13023117 3.13344299 103.05196625 3.13552856 104.00163269 C3.12182876 108.14276528 3.00550377 111.95684495 2 116 C1.71956461 118.56286786 1.49987006 121.12652678 1.28125 123.6953125 C1 126 1 126 0 129 C-0.66 129 -1.32 129 -2 129 C-2.12523423 122.4878201 -2.12523423 122.4878201 -1.5059824 120.07567215 C-0.92011705 117.67229924 -0.86020342 115.51303119 -0.84178162 113.03924561 C-0.8319928 112.04087677 -0.82220398 111.04250793 -0.81211853 110.0138855 C-0.80636307 108.92487946 -0.8006076 107.83587341 -0.79467773 106.71386719 C-0.78477814 105.56236176 -0.77487854 104.41085632 -0.76467896 103.22445679 C-0.73307131 99.41528383 -0.70830929 95.6060984 -0.68359375 91.796875 C-0.6630236 89.15699945 -0.64202711 86.5171272 -0.62062073 83.8772583 C-0.57073994 77.63712304 -0.52578404 71.39696241 -0.48259836 65.15677762 C-0.43318651 58.05159047 -0.37828304 50.94644908 -0.32291877 43.84130621 C-0.20916959 29.22758081 -0.1023152 14.61380987 0 0 Z " fill="#367444" transform="translate(986,721)"/>
<path d="M0 0 C3.33892261 0.63805942 6.45559478 0.65400593 9.85613251 0.64796448 C10.55516426 0.64811334 11.254196 0.6482622 11.97441053 0.64841557 C14.31038171 0.6477226 16.64627368 0.63988724 18.98223114 0.63209534 C20.65956325 0.63017566 22.33689594 0.62871209 24.01422882 0.62767029 C27.62316705 0.62451123 31.23208183 0.61824554 34.84101105 0.60960388 C40.54722163 0.59607937 46.25342442 0.59018691 51.95964813 0.58546448 C64.07200391 0.57436505 76.1843411 0.55483019 88.29668427 0.53443909 C101.37277318 0.51242552 114.44885441 0.49184262 127.52495813 0.48102093 C133.19780777 0.47603689 138.87062175 0.46617467 144.54345703 0.45259094 C148.07162603 0.44513378 151.59979011 0.44181617 155.12796593 0.43962479 C156.76423117 0.43775211 158.40049549 0.43414982 160.0367527 0.42869186 C162.27027003 0.42147614 164.50370901 0.42043807 166.73723602 0.4209137 C168.61210064 0.41758278 168.61210064 0.41758278 170.52484131 0.41418457 C173.41578127 0.52043924 175.99052144 0.86260056 178.79668427 1.53443909 C178.79668427 1.86443909 178.79668427 2.19443909 178.79668427 2.53443909 C155.26630767 2.5811278 131.735938 2.61641257 108.20552444 2.63806343 C97.28032891 2.6483828 86.35516213 2.66245576 75.42998505 2.68531799 C65.90932422 2.70523164 56.38868421 2.71815071 46.86800313 2.72261608 C41.82533138 2.72522689 36.78271921 2.73137716 31.74006653 2.7458992 C26.99594753 2.75945111 22.25191278 2.76366657 17.50777626 2.76065445 C15.76466477 2.76120568 14.02155052 2.76519734 12.27845573 2.77285004 C9.90192038 2.7827739 7.52570476 2.78041739 5.14916229 2.77494812 C4.11024688 2.78368664 4.11024688 2.78368664 3.05034328 2.7926017 C-0.54037602 2.77020622 -3.14619333 2.48914646 -6.20331573 0.53443909 C-3.87051762 -0.24316028 -2.43091034 -0.51365168 0 0 Z " fill="#1E6B2C" transform="translate(277.2033157348633,1175.465560913086)"/>
<path d="M0 0 C-2.07496178 4.57774431 -5.21778262 7.55987974 -8.75 11.0625 C-9.75111816 12.05842163 -9.75111816 12.05842163 -10.77246094 13.07446289 C-16.63537242 18.8122934 -22.82661364 23.94232656 -29.41259766 28.82275391 C-30.8832196 29.91339356 -32.33880365 31.02423161 -33.79296875 32.13671875 C-41.17762347 37.68884467 -49.00014505 42.40306842 -57 47 C-57.62358398 47.36109863 -58.24716797 47.72219727 -58.88964844 48.09423828 C-60.66914323 49.11812788 -62.45701506 50.12495819 -64.25 51.125 C-65.28640625 51.70507812 -66.3228125 52.28515625 -67.390625 52.8828125 C-70 54 -70 54 -73 53 C-71.53040833 50.06081666 -69.22168866 49.90052574 -66.26953125 48.86328125 C-63.274555 47.7240562 -60.49014149 46.27264498 -57.6640625 44.76953125 C-56 44 -56 44 -54 44 C-54 43.34 -54 42.68 -54 42 C-51.525 41.505 -51.525 41.505 -49 41 C-49 40.34 -49 39.68 -49 39 C-48.01 39 -47.02 39 -46 39 C-46 38.34 -46 37.68 -46 37 C-40.70588235 33 -40.70588235 33 -37 33 C-36.731875 32.38125 -36.46375 31.7625 -36.1875 31.125 C-35 29 -35 29 -32 27 C-31.01 27 -30.02 27 -29 27 C-28.79375 26.443125 -28.5875 25.88625 -28.375 25.3125 C-26.40776457 22.00396768 -24.10937286 20.2844372 -21 18 C-20.01 18 -19.02 18 -18 18 C-17.73574219 17.4112207 -17.47148438 16.82244141 -17.19921875 16.21582031 C-15.95631056 13.91927416 -14.64993519 12.39166834 -12.8125 10.546875 C-12.19632813 9.928125 -11.58015625 9.309375 -10.9453125 8.671875 C-9.98238281 7.72054688 -9.98238281 7.72054688 -9 6.75 C-8.35804687 6.1003125 -7.71609375 5.450625 -7.0546875 4.78125 C-6.43851563 4.16765625 -5.82234375 3.5540625 -5.1875 2.921875 C-4.62417969 2.36081055 -4.06085938 1.79974609 -3.48046875 1.22167969 C-2 0 -2 0 0 0 Z " fill="#1A4929" transform="translate(1119,1104)"/>
<path d="M0 0 C2.25363182 6.07753613 -1.47813659 12.44930671 -4 18 C-7.32205617 24.64162855 -10.95822174 31.1118934 -14.62402344 37.56835938 C-15.74038999 39.54121439 -16.83534364 41.52210434 -17.9140625 43.515625 C-24.40863249 55.22504675 -32.86454716 66.22120541 -42 76 C-42.33 75.01 -42.66 74.02 -43 73 C-42.50371094 72.46632813 -42.00742188 71.93265625 -41.49609375 71.3828125 C-37.01090663 66.46357501 -33.0917522 61.44251441 -29.4453125 55.87109375 C-28.72988281 54.94490234 -28.72988281 54.94490234 -28 54 C-27.34 54 -26.68 54 -26 54 C-26 53.01 -26 52.02 -26 51 C-25.34 51 -24.68 51 -24 51 C-23.896875 50.278125 -23.79375 49.55625 -23.6875 48.8125 C-22.93206053 45.72206579 -21.84468685 43.58256159 -20 41 C-19.34 41 -18.68 41 -18 41 C-17.87625 40.2575 -17.7525 39.515 -17.625 38.75 C-17.04513299 36.19858515 -16.26291261 34.2732427 -15 32 C-14.34 32 -13.68 32 -13 32 C-12.9175 31.319375 -12.835 30.63875 -12.75 29.9375 C-11.99269137 26.97137452 -10.74797156 24.88460577 -9.17578125 22.2890625 C-7.06487239 18.17945256 -5.71891286 13.77251192 -4.24609375 9.40234375 C-3.04426679 6.12086639 -1.62329525 3.09131879 0 0 Z " fill="#144422" transform="translate(1163,1027)"/>
<path d="M0 0 C0.99 0.33 1.98 0.66 3 1 C-0.2678881 3.69879448 -3.56901055 6.04790598 -7.1875 8.25 C-22.47373904 17.88074042 -36.44777897 30.69188294 -47.3359375 45.09375 C-47.88507813 45.7228125 -48.43421875 46.351875 -49 47 C-49.66 47 -50.32 47 -51 47 C-43.70812895 31.56040448 -27.78886328 18.58304009 -14 9 C-13.38108887 8.56864746 -12.76217773 8.13729492 -12.12451172 7.69287109 C-10.21994732 6.38051841 -8.30221723 5.0913147 -6.375 3.8125 C-5.78259521 3.41305176 -5.19019043 3.01360352 -4.57983398 2.60205078 C-2.8984375 1.51953125 -2.8984375 1.51953125 0 0 Z " fill="#48A865" transform="translate(547,362)"/>
<path d="M0 0 C1.8305468 -0.00021904 1.8305468 -0.00021904 3.69807434 -0.0004425 C7.02189953 0.00013209 10.34566153 0.00512477 13.66947556 0.01213145 C17.15147462 0.01841049 20.63347466 0.01897238 24.11547852 0.02015686 C30.69904844 0.02325681 37.28260163 0.0314521 43.86616421 0.04150635 C51.36560012 0.05270909 58.86503686 0.0581884 66.36447906 0.06320179 C81.78205821 0.07363591 97.19962069 0.09120934 112.6171875 0.11352539 C112.6171875 0.44352539 112.6171875 0.77352539 112.6171875 1.11352539 C111.98420022 1.11775733 111.35121294 1.12198927 110.69904423 1.12634945 C95.31844349 1.22951886 79.93789244 1.33813575 64.557374 1.45286465 C57.11956437 1.50821371 49.68174994 1.56169841 42.24389648 1.61083984 C35.763344 1.65366113 29.28282708 1.69993383 22.80232948 1.75040394 C19.36890298 1.77702152 15.93548361 1.80187492 12.50201607 1.82259941 C8.67520569 1.84576265 4.84847923 1.87662938 1.02172852 1.90820312 C-0.69808983 1.91683632 -0.69808983 1.91683632 -2.45265198 1.92564392 C-4.0071254 1.94032715 -4.0071254 1.94032715 -5.59300232 1.95530701 C-6.49912482 1.96175956 -7.40524733 1.96821211 -8.33882809 1.97486019 C-10.37653468 1.88803935 -10.37653468 1.88803935 -11.3828125 3.11352539 C-14.05340101 3.254677 -16.70713488 3.15599646 -19.3828125 3.11352539 C-19.7128125 2.45352539 -20.0428125 1.79352539 -20.3828125 1.11352539 C-13.56192085 0.07137661 -6.89244348 -0.02173552 0 0 Z " fill="#76D8A2" transform="translate(292.3828125,72.886474609375)"/>
<path d="M0 0 C0.33 0 0.66 0 1 0 C1.144375 1.11375 1.28875 2.2275 1.4375 3.375 C1.78372035 6.82142047 1.78372035 6.82142047 3 9 C3.06398506 11.99129256 3.06566274 14.95750951 3.02172852 17.94775391 C3.0073172 19.33807579 3.0073172 19.33807579 2.99261475 20.75648499 C2.95954965 23.82991963 2.91924595 26.90321543 2.87890625 29.9765625 C2.85461247 32.10362249 2.83076855 34.23068767 2.80735779 36.35775757 C2.74444299 41.96380503 2.67539732 47.56976108 2.60510254 53.17572021 C2.53448581 58.89314602 2.46962902 64.6106368 2.40429688 70.328125 C2.27518923 81.55215472 2.13960885 92.77609633 2 104 C1.67 104 1.34 104 1 104 C0.67 69.68 0.34 35.36 0 0 Z " fill="#094D15" transform="translate(986,721)"/>
<path d="M0 0 C0.99 0.33 1.98 0.66 3 1 C-2.61744528 6.35184503 -8.05536686 10.55098757 -15 14 C-16.27617188 14.66515625 -16.27617188 14.66515625 -17.578125 15.34375 C-29.13392857 21.29464286 -29.13392857 21.29464286 -33.375 20.625 C-34.179375 20.315625 -34.179375 20.315625 -35 20 C-34.34 20 -33.68 20 -33 20 C-33 19.34 -33 18.68 -33 18 C-32.18917969 17.70867188 -31.37835937 17.41734375 -30.54296875 17.1171875 C-19.87011687 13.1661201 -10.5181401 8.70596321 -1.875 1.22265625 C-1.25625 0.81917969 -0.6375 0.41570313 0 0 Z " fill="#2B6639" transform="translate(956,893)"/>
<path d="M0 0 C0.79033127 -0.00014603 1.58066254 -0.00029205 2.39494324 -0.0004425 C5.01381145 0.00025556 7.63260902 0.008043 10.25146484 0.01586914 C12.06464601 0.0177337 13.87782767 0.01915742 15.69100952 0.02015686 C20.46843857 0.02397907 25.24583733 0.03380685 30.02325439 0.04486084 C34.89619538 0.05508132 39.76914124 0.05965585 44.64208984 0.06469727 C54.20720734 0.07542936 63.77230232 0.09250225 73.33740234 0.11352539 C73.00740234 0.77352539 72.67740234 1.43352539 72.33740234 2.11352539 C71.43839706 2.11130478 70.53939178 2.10908417 69.61314392 2.10679626 C61.12411047 2.08672557 52.63508504 2.07151672 44.14603329 2.06171322 C39.78215965 2.05650366 35.41830568 2.0494411 31.05444336 2.03808594 C26.83990346 2.02718845 22.62538245 2.02123404 18.41082954 2.01864815 C16.80615505 2.01680624 15.20148153 2.01320952 13.59681511 2.00779533 C11.34227167 2.00049376 9.08780539 1.99953828 6.83325195 2 C4.91131264 1.99666908 4.91131264 1.99666908 2.95054626 1.99327087 C-0.71688755 2.03734314 -0.71688755 2.03734314 -4.50608826 2.74562073 C-5.54773636 2.86702927 -6.58938446 2.98843781 -7.66259766 3.11352539 C-8.32259766 2.45352539 -8.98259766 1.79352539 -9.66259766 1.11352539 C-6.58990063 -0.42282312 -3.37058647 -0.01615286 0 0 Z " fill="#2C803E" transform="translate(489.66259765625,755.886474609375)"/>
<path d="M0 0 C1.4962608 2.39179235 2.02832609 3.65688015 1.79296875 6.5078125 C1.59316406 7.37148437 1.39335938 8.23515625 1.1875 9.125 C0.99542969 9.99382812 0.80335937 10.86265625 0.60546875 11.7578125 C0 14 0 14 -1 16 C-1.20379734 17.80870138 -1.36500995 19.62236592 -1.5 21.4375 C-1.73306642 24.56308718 -2.00474943 27.01424829 -3 30 C-3.04278083 31.37433431 -3.04057273 32.75059873 -3 34.125 C-3 35.40375 -3 36.6825 -3 38 C-3.495 38.495 -3.495 38.495 -4 39 C-4.23363881 40.84891946 -4.41303635 42.70488031 -4.5625 44.5625 C-4.64628906 45.57441406 -4.73007813 46.58632813 -4.81640625 47.62890625 C-4.90728516 48.80259766 -4.90728516 48.80259766 -5 50 C-5.33 50 -5.66 50 -6 50 C-6.6483681 33.02236123 -4.29579479 16.42151341 0 0 Z " fill="#83E4AF" transform="translate(82,242)"/>
<path d="M0 0 C-1 3 -1 3 -2.81005859 4.05908203 C-3.58172363 4.37216309 -4.35338867 4.68524414 -5.1484375 5.0078125 C-5.98890625 5.35457031 -6.829375 5.70132812 -7.6953125 6.05859375 C-8.57960938 6.41050781 -9.46390625 6.76242187 -10.375 7.125 C-11.68984375 7.66447266 -11.68984375 7.66447266 -13.03125 8.21484375 C-16.33416257 9.56328053 -19.61472204 10.87157401 -23 12 C-23.66 11.34 -24.32 10.68 -25 10 C-21.89716979 8.51801792 -18.79251273 7.03990317 -15.6875 5.5625 C-14.80642578 5.14162109 -13.92535156 4.72074219 -13.01757812 4.28710938 C-12.17001953 3.88427734 -11.32246094 3.48144531 -10.44921875 3.06640625 C-9.27879028 2.5086853 -9.27879028 2.5086853 -8.0847168 1.93969727 C-5.23070093 0.65323432 -3.1548016 0 0 0 Z " fill="#49A865" transform="translate(574,351)"/>
<path d="M0 0 C4.21073233 1.50383297 5.83237117 4.20664956 8 8 C8 8.99 8 9.98 8 11 C8.99 11.33 9.98 11.66 11 12 C11 13.32 11 14.64 11 16 C11.66 16 12.32 16 13 16 C13.67154933 17.28913487 14.33708859 18.58140204 15 19.875 C15.37125 20.59429688 15.7425 21.31359375 16.125 22.0546875 C17 24 17 24 17 26 C14 25 14 25 12.67578125 22.6640625 C12.22589844 21.66117188 11.77601563 20.65828125 11.3125 19.625 C8.61767652 13.95025837 5.37701111 9.13883458 1.5390625 4.1796875 C0 2 0 2 0 0 Z " fill="#2B6C37" transform="translate(965,675)"/>
<path d="M0 0 C0.58104492 0.97332275 0.58104492 0.97332275 1.17382812 1.96630859 C2.82830822 4.20962886 2.82830822 4.20962886 5.40429688 4.51416016 C6.33306641 4.52237793 7.26183594 4.5305957 8.21875 4.5390625 C9.23324219 4.56226563 10.24773438 4.58546875 11.29296875 4.609375 C12.35128906 4.61453125 13.40960937 4.6196875 14.5 4.625 C16.59386836 4.65050388 18.68765894 4.68399902 20.78125 4.7265625 C21.71001953 4.73252441 22.63878906 4.73848633 23.59570312 4.74462891 C26 5 26 5 29 7 C19.43 7 9.86 7 0 7 C0 4.69 0 2.38 0 0 Z " fill="#337842" transform="translate(884,638)"/>
<path d="M0 0 C-5.18760103 2.91053523 -10.39772465 4.34110694 -16.125 5.75 C-17.01832031 5.98332031 -17.91164063 6.21664063 -18.83203125 6.45703125 C-20.12560547 6.77994141 -20.12560547 6.77994141 -21.4453125 7.109375 C-22.22406738 7.30499023 -23.00282227 7.50060547 -23.80517578 7.70214844 C-26.17227083 8.02337824 -27.74412338 7.73076789 -30 7 C-29.01 7 -28.02 7 -27 7 C-27 6.34 -27 5.68 -27 5 C-26.10796875 4.79503906 -25.2159375 4.59007812 -24.296875 4.37890625 C-23.12640625 4.10949219 -21.9559375 3.84007812 -20.75 3.5625 C-19.58984375 3.29566406 -18.4296875 3.02882813 -17.234375 2.75390625 C-13.57484601 1.9009001 -10.02202257 1.0069545 -6.4375 -0.125 C-3 -1 -3 -1 0 0 Z " fill="#245333" transform="translate(1022,1168)"/>
<path d="M0 0 C1.14122941 3.42368824 0.9506412 3.73252526 -0.546875 6.80078125 C-0.8975 7.53103516 -1.248125 8.26128906 -1.609375 9.01367188 C-1.98578125 9.77228516 -2.3621875 10.53089844 -2.75 11.3125 C-3.29140625 12.43301758 -3.29140625 12.43301758 -3.84375 13.57617188 C-4.55402323 15.04175378 -5.2706774 16.50426296 -5.99414062 17.96337891 C-6.89735189 19.79216249 -7.77094453 21.63550375 -8.640625 23.48046875 C-10 26 -10 26 -12 27 C-10.17159032 20.71484172 -7.66126816 14.90785183 -4.875 9 C-4.5140625 8.23373291 -4.153125 7.46746582 -3.78125 6.67797852 C-1.13848975 1.13848975 -1.13848975 1.13848975 0 0 Z " fill="#79E3AD" transform="translate(103,190)"/>
<path d="M0 0 C1.67542976 0.28604898 3.34385343 0.61781233 5 1 C4.41476562 1.29132813 3.82953125 1.58265625 3.2265625 1.8828125 C1.8837158 2.55659172 0.54408554 3.23691625 -0.7890625 3.9296875 C-5.2516287 6.22743435 -9.78325236 8.15834046 -14.45703125 9.984375 C-18.35593284 11.54154 -22.17789438 13.26435783 -26 15 C-26 14.34 -26 13.68 -26 13 C-23.75474054 11.82333996 -21.50455858 10.6585926 -19.25 9.5 C-18.61578125 9.16613281 -17.9815625 8.83226562 -17.328125 8.48828125 C-13.87989007 6.72824467 -11.95159931 6 -8 6 C-7.67 5.01 -7.34 4.02 -7 3 C-4 1.875 -4 1.875 -1 1 C-0.67 0.67 -0.34 0.34 0 0 Z " fill="#4FAD70" transform="translate(552,306)"/>
<path d="M0 0 C0.33 0 0.66 0 1 0 C1.02690844 2.62506802 1.04679404 5.24986173 1.0625 7.875 C1.07087891 8.62136719 1.07925781 9.36773438 1.08789062 10.13671875 C1.11328125 15.7734375 1.11328125 15.7734375 0 18 C-0.36141955 20.32914823 -0.69699525 22.66253478 -1 25 C-1.66 25 -2.32 25 -3 25 C-3.18208839 19.34767292 -2.49420813 14.12021301 -1.5 8.5625 C-1.35691406 7.73556641 -1.21382812 6.90863281 -1.06640625 6.05664062 C-0.71615337 4.03684899 -0.35880704 2.01828958 0 0 Z " fill="#1B5929" transform="translate(987,825)"/>
<path d="M0 0 C3.97243168 1.32414389 6.13488574 2.9879568 9 6 C-5.78132118 6.18451025 -5.78132118 6.18451025 -12 5 C-12 4.67 -12 4.34 -12 4 C-7.38 4 -2.76 4 2 4 C1.34 2.68 0.68 1.36 0 0 Z " fill="#2F8143" transform="translate(664,545)"/>
<path d="M0 0 C0 0.66 0 1.32 0 2 C1.98 2 3.96 2 6 2 C6 2.33 6 2.66 6 3 C-13.305 2.505 -13.305 2.505 -33 2 C-33 1.67 -33 1.34 -33 1 C-28.78249212 0.85694335 -24.56496269 0.71454463 -20.34741211 0.57275391 C-18.9128357 0.52443202 -17.47826532 0.47593077 -16.04370117 0.42724609 C-13.98097266 0.35727469 -11.91822328 0.28794962 -9.85546875 0.21875 C-7.99378052 0.1559082 -7.99378052 0.1559082 -6.09448242 0.09179688 C-4.06365121 0.03155289 -2.03172457 0 0 0 Z " fill="#7CC091" transform="translate(640,295)"/>
<path d="M0 0 C2.31 0.33 4.62 0.66 7 1 C3.25381962 3.23405028 -0.76957079 3.90962217 -5 4.6875 C-6.06734375 4.90116211 -6.06734375 4.90116211 -7.15625 5.11914062 C-10.68642913 5.78104921 -13.58836758 6.32378445 -17 5 C-16.34 5 -15.68 5 -15 5 C-15 4.34 -15 3.68 -15 3 C-12.03 3.495 -12.03 3.495 -9 4 C-9 3.34 -9 2.68 -9 2 C-3.375 0.875 -3.375 0.875 0 2 C0 1.34 0 0.68 0 0 Z " fill="#63AC79" transform="translate(512,556)"/>
<path d="M0 0 C1.72251754 4.0845326 0.07280563 7.36973696 -1.4375 11.25 C-1.68048828 11.8996875 -1.92347656 12.549375 -2.17382812 13.21875 C-2.77285994 14.81616817 -3.38514321 16.40860594 -4 18 C-4.99 18 -5.98 18 -7 18 C-5.26375242 11.5811453 -3.14819255 5.86215164 0 0 Z " fill="#184C28" transform="translate(1163,1027)"/>
<path d="M0 0 C0.96550781 0.00451172 1.93101562 0.00902344 2.92578125 0.01367188 C5.28392089 0.02534583 7.64192602 0.04171979 10 0.0625 C10 0.3925 10 0.7225 10 1.0625 C9.14450562 1.10008423 9.14450562 1.10008423 8.27172852 1.13842773 C5.70173843 1.25406549 3.13214473 1.37693624 0.5625 1.5 C-0.33533203 1.53931641 -1.23316406 1.57863281 -2.15820312 1.61914062 C-3.01220703 1.66103516 -3.86621094 1.70292969 -4.74609375 1.74609375 C-5.93223267 1.80108032 -5.93223267 1.80108032 -7.14233398 1.85717773 C-9.01401441 1.86813257 -9.01401441 1.86813257 -10 3.0625 C-12.67058851 3.20365161 -15.32432238 3.10497107 -18 3.0625 C-18.33 2.4025 -18.66 1.7425 -19 1.0625 C-12.62542652 0.10781742 -6.43938347 -0.0577324 0 0 Z " fill="#7FDEAB" transform="translate(291,72.9375)"/>
<path d="M0 0 C4.50299274 1.37591445 6.15241586 3.35153282 9 7 C10.65261839 8.02304948 12.31791365 9.02616054 14 10 C14.99 11.485 14.99 11.485 16 13 C11.69724259 12.48826429 8.92245745 9.76819637 5.75 7.0625 C5.19570313 6.60681641 4.64140625 6.15113281 4.0703125 5.68164062 C2.67027676 4.50402435 1.32968486 3.25651038 0 2 C0 1.34 0 0.68 0 0 Z " fill="#2B6F37" transform="translate(948,659)"/>
<path d="M0 0 C0.33 0 0.66 0 1 0 C0.7201206 7.486774 -0.47649871 13.36270688 -4 20 C-5.06845937 16.79462189 -4.94995121 16.04067907 -4.0625 12.9375 C-3.23603846 10.01114462 -3.23603846 10.01114462 -3 7 C-2.34 7 -1.68 7 -1 7 C-0.67 4.69 -0.34 2.38 0 0 Z " fill="#154824" transform="translate(1169,1006)"/>
<path d="M0 0 C0.33 0.99 0.66 1.98 1 3 C0.67 3.66 0.34 4.32 0 5 C-0.66 5 -1.32 5 -2 5 C-2.103125 5.9075 -2.20625 6.815 -2.3125 7.75 C-3.00649813 11.03071844 -3.70085668 12.60889095 -6 15 C-6.66 15 -7.32 15 -8 15 C-6.51194289 9.19657726 -3.40902445 4.82409121 0 0 Z " fill="#53AB70" transform="translate(491,415)"/>
<path d="M0 0 C0.99 0.33 1.98 0.66 3 1 C1.57084149 2.34227046 0.13137328 3.67357096 -1.3125 5 C-2.11300781 5.7425 -2.91351562 6.485 -3.73828125 7.25 C-6 9 -6 9 -9 9 C-7.86085739 5.58257218 -6.93609692 4.87119402 -4.125 2.75 C-3.42632813 2.20859375 -2.72765625 1.6671875 -2.0078125 1.109375 C-1.34523438 0.74328125 -0.68265625 0.3771875 0 0 Z " fill="#256131" transform="translate(956,893)"/>
<path d="M0 0 C0.33 0.66 0.66 1.32 1 2 C-0.14453125 4.34765625 -0.14453125 4.34765625 -1.8125 7.0625 C-2.35519531 7.96097656 -2.89789062 8.85945312 -3.45703125 9.78515625 C-5 12 -5 12 -7 13 C-6.42176162 8.22953336 -4.53971712 5.00197849 -2 1 C-1.34 0.67 -0.68 0.34 0 0 Z " fill="#226131" transform="translate(978,866)"/>
<path d="M0 0 C0.80179687 0.00451172 1.60359375 0.00902344 2.4296875 0.01367188 C4.41149006 0.02546832 6.39325433 0.04340395 8.375 0.0625 C6.375 2.0625 6.375 2.0625 2.6875 2.125 C1.62595703 2.09212891 1.62595703 2.09212891 0.54296875 2.05859375 C-1.92246031 2.00614345 -1.92246031 2.00614345 -5.5 2.6875 C-6.53125 2.81125 -7.5625 2.935 -8.625 3.0625 C-9.285 2.4025 -9.945 1.7425 -10.625 1.0625 C-7.31505287 -0.59247356 -3.63377 -0.03834335 0 0 Z " fill="#378749" transform="translate(490.625,755.9375)"/>
<path d="M0 0 C-1 3 -1 3 -3.125 4.1875 C-6.51418301 5.14531259 -9.49471861 5.13746202 -13 5 C-10.94876752 2.94876752 -9.72994937 2.35852882 -7.0625 1.375 C-6.37285156 1.11460937 -5.68320312 0.85421875 -4.97265625 0.5859375 C-3 0 -3 0 0 0 Z " fill="#55AE6F" transform="translate(574,351)"/>
<path d="M0 0 C0.66 0 1.32 0 2 0 C4.4793824 6.24273068 5.31985731 11.28299653 5 18 C3.31099986 14.89370844 2.29373333 11.84794949 1.375 8.4375 C1.11460937 7.48746094 0.85421875 6.53742187 0.5859375 5.55859375 C0 3 0 3 0 0 Z " fill="#1B6128" transform="translate(981,702)"/>
<path d="M0 0 C-2.53645881 3.10011632 -5.15184135 4.0575938 -9 5 C-11.375 4.625 -11.375 4.625 -13 4 C-12.34 4 -11.68 4 -11 4 C-11 3.34 -11 2.68 -11 2 C-9.54494642 1.47007308 -8.08581873 0.9513211 -6.625 0.4375 C-5.81289063 0.14746094 -5.00078125 -0.14257812 -4.1640625 -0.44140625 C-2 -1 -2 -1 0 0 Z " fill="#336C41" transform="translate(934,909)"/>
<path d="M0 0 C1.43793392 0.31049726 2.8753318 0.6234776 4.3125 0.9375 C5.11300781 1.11152344 5.91351562 1.28554688 6.73828125 1.46484375 C9 2 9 2 12 3 C12.33 3.99 12.66 4.98 13 6 C11.20763933 5.52343588 9.41613103 5.04366502 7.625 4.5625 C6.62726562 4.29566406 5.62953125 4.02882813 4.6015625 3.75390625 C2 3 2 3 0 2 C0 1.34 0 0.68 0 0 Z " fill="#488E58" transform="translate(783,569)"/>
<path d="M0 0 C1.39456452 0.00667256 2.78911118 0.01863093 4.18359375 0.03515625 C4.89451172 0.03966797 5.60542969 0.04417969 6.33789062 0.04882812 C8.09899388 0.06064761 9.86005411 0.07858362 11.62109375 0.09765625 C11.62109375 0.42765625 11.62109375 0.75765625 11.62109375 1.09765625 C2.71109375 2.58265625 2.71109375 2.58265625 -6.37890625 4.09765625 C-3.71878837 0.10747943 -3.71878837 0.10747943 0 0 Z " fill="#57B074" transform="translate(577.37890625,298.90234375)"/>
<path d="M0 0 C0.33 0 0.66 0 1 0 C1.2226746 1.43534841 1.42761906 2.87345525 1.625 4.3125 C1.74101563 5.11300781 1.85703125 5.91351562 1.9765625 6.73828125 C2 9 2 9 0 12 C-0.66 12 -1.32 12 -2 12 C-1.34 8.04 -0.68 4.08 0 0 Z M2 0 C2.33 0 2.66 0 3 0 C3 1.98 3 3.96 3 6 C2.67 6 2.34 6 2 6 C2 4.02 2 2.04 2 0 Z " fill="#D1E2D5" transform="translate(774,773)"/>
<path d="M0 0 C0.66 0.66 1.32 1.32 2 2 C-0.64 4.64 -3.28 7.28 -6 10 C-6.66 9.67 -7.32 9.34 -8 9 C-6.85459775 7.68712379 -5.70866567 6.37470979 -4.5625 5.0625 C-3.92441406 4.33160156 -3.28632813 3.60070312 -2.62890625 2.84765625 C-1.77458541 1.87860647 -0.91348825 0.91348825 0 0 Z " fill="#3B9653" transform="translate(447,623)"/>
<path d="M0 0 C-0.96371494 2.40928735 -1.65210163 3.76007009 -3.8125 5.25 C-6.32321365 6.11081611 -8.36348649 6.14647297 -11 6 C-3.8 0 -3.8 0 0 0 Z " fill="#469A59" transform="translate(599,533)"/>
<path d="M0 0 C0.66 1.32 1.32 2.64 2 4 C1.34 4 0.68 4 0 4 C0.33 4.99 0.66 5.98 1 7 C0.44140625 9.04296875 0.44140625 9.04296875 -0.4375 11.1875 C-0.86869141 12.26064453 -0.86869141 12.26064453 -1.30859375 13.35546875 C-1.53675781 13.89816406 -1.76492188 14.44085938 -2 15 C-3.31534494 11.34142468 -2.65468309 8.91973519 -1.5625 5.25 C-1.27503906 4.26515625 -0.98757813 3.2803125 -0.69140625 2.265625 C-0.46324219 1.51796875 -0.23507812 0.7703125 0 0 Z " fill="#62B17B" transform="translate(471,459)"/>
<path d="M0 0 C0.66 0.99 1.32 1.98 2 3 C0.88200014 4.33920838 -0.24461897 5.67122556 -1.375 7 C-2.31472656 8.11375 -2.31472656 8.11375 -3.2734375 9.25 C-3.84320313 9.8275 -4.41296875 10.405 -5 11 C-5.66 11 -6.32 11 -7 11 C-5.22054913 6.95579349 -2.60470327 3.53921513 0 0 Z " fill="#57AF73" transform="translate(503,398)"/>
<path d="M0 0 C-2.60542016 1.73694677 -4.58342775 2.69100448 -7.5 3.6875 C-8.2734375 3.95949219 -9.046875 4.23148437 -9.84375 4.51171875 C-12 5 -12 5 -15 4 C-10.98917213 -0.01082787 -5.44022738 -0.26537695 0 0 Z " fill="#63DF9D" transform="translate(241,82)"/>
<path d="M0 0 C-5.04140164 2.81532819 -9.22621075 4.5188509 -15 5 C-12.62383533 2.62383533 -10.64650479 1.95931819 -7.5 0.8125 C-6.5203125 0.44769531 -5.540625 0.08289062 -4.53125 -0.29296875 C-2 -1 -2 -1 0 0 Z " fill="#114320" transform="translate(1040,1161)"/>
<path d="M0 0 C0.33 0 0.66 0 1 0 C1.144375 1.11375 1.28875 2.2275 1.4375 3.375 C1.78372035 6.82142047 1.78372035 6.82142047 3 9 C2.91188555 11.21138855 2.7570216 13.42042185 2.5625 15.625 C2.40974609 17.40777344 2.40974609 17.40777344 2.25390625 19.2265625 C2.12822266 20.59941406 2.12822266 20.59941406 2 22 C1.67 22 1.34 22 1 22 C0.67 14.74 0.34 7.48 0 0 Z " fill="#10561C" transform="translate(986,721)"/>
<path d="M0 0 C5.42039575 -0.40652968 9.07015675 0.96006486 14 3 C13.67 3.66 13.34 4.32 13 5 C11.01853549 4.55170486 9.03985789 4.09107502 7.0625 3.625 C5.96035156 3.36976563 4.85820313 3.11453125 3.72265625 2.8515625 C2.82417969 2.57054687 1.92570313 2.28953125 1 2 C0.67 1.34 0.34 0.68 0 0 Z " fill="#367441" transform="translate(918,646)"/>
<path d="M0 0 C-1.61992165 0.86375896 -3.24611861 1.71575854 -4.875 2.5625 C-6.23238281 3.27599609 -6.23238281 3.27599609 -7.6171875 4.00390625 C-8.40351563 4.33261719 -9.18984375 4.66132812 -10 5 C-10.66 4.67 -11.32 4.34 -12 4 C-8.51556551 -0.03460835 -5.13031263 -1.52493369 0 0 Z " fill="#6BE4A3" transform="translate(214,92)"/>
<path d="M0 0 C2.70931419 0.15481795 4.46584039 0.48172081 6.4453125 2.40234375 C7.67679642 3.89771708 8.8429837 5.4462924 10 7 C6.433255 7 5.89456323 6.36308045 3.3125 4.0625 C2.68988281 3.51722656 2.06726563 2.97195313 1.42578125 2.41015625 C0.95527344 1.94480469 0.48476563 1.47945313 0 1 C0 0.67 0 0.34 0 0 Z " fill="#3C9653" transform="translate(717,379)"/>
<path d="M0 0 C-3.70416126 2.37590142 -6.92984573 2.20500286 -11.25 2.125 C-12.51328125 2.10695313 -13.7765625 2.08890625 -15.078125 2.0703125 C-16.04234375 2.04710937 -17.0065625 2.02390625 -18 2 C-18 1.67 -18 1.34 -18 1 C-15.75152519 0.63627613 -13.50113812 0.28435904 -11.25 -0.0625 C-9.99703125 -0.25972656 -8.7440625 -0.45695313 -7.453125 -0.66015625 C-4.49983411 -0.95080818 -2.7397586 -0.98935727 0 0 Z " fill="#B7D4BF" transform="translate(710,707)"/>
<path d="M0 0 C1.33998047 0.31324219 1.33998047 0.31324219 2.70703125 0.6328125 C3.60808594 0.83648437 4.50914062 1.04015625 5.4375 1.25 C6.46810547 1.50136719 6.46810547 1.50136719 7.51953125 1.7578125 C4.51953125 3.7578125 4.51953125 3.7578125 2.0390625 3.515625 C1.14574219 3.30679687 0.25242187 3.09796875 -0.66796875 2.8828125 C-1.56902344 2.67914063 -2.47007812 2.47546875 -3.3984375 2.265625 C-4.08550781 2.09804688 -4.77257812 1.93046875 -5.48046875 1.7578125 C-2.48046875 -0.2421875 -2.48046875 -0.2421875 0 0 Z " fill="#449E5E" transform="translate(661.48046875,348.2421875)"/>
<path d="M0 0 C2.64 0 5.28 0 8 0 C8 0.66 8 1.32 8 2 C9.65 2.33 11.3 2.66 13 3 C9.57056481 4.18771723 7.62215325 3.80226223 4.25 2.5625 C3.45078125 2.27503906 2.6515625 1.98757813 1.828125 1.69140625 C1.22484375 1.46324219 0.6215625 1.23507812 0 1 C0 0.67 0 0.34 0 0 Z " fill="#639A70" transform="translate(227,1167)"/>
<path d="M0 0 C0.99 0.33 1.98 0.66 3 1 C1.35 3.64 -0.3 6.28 -2 9 C-3 5 -3 5 -1.5625 2.25 C-1.046875 1.5075 -0.53125 0.765 0 0 Z " fill="#1F4E2E" transform="translate(1142,1070)"/>
<path d="M0 0 C-3.90898316 2.60598877 -6.33080658 2.70354328 -11 3 C-11.66 2.34 -12.32 1.68 -13 1 C-4.57142857 -1.42857143 -4.57142857 -1.42857143 0 0 Z " fill="#439658" transform="translate(510,597)"/>
<path d="M0 0 C0.66 0.99 1.32 1.98 2 3 C0.625 6.6875 0.625 6.6875 -1 10 C-1.66 10 -2.32 10 -3 10 C-2.01 6.7 -1.02 3.4 0 0 Z " fill="#55AE71" transform="translate(478,438)"/>
<path d="M0 0 C0 0.66 0 1.32 0 2 C1.98 2 3.96 2 6 2 C6 2.33 6 2.66 6 3 C-3.41002278 3.18451025 -3.41002278 3.18451025 -8 2 C-8 1.67 -8 1.34 -8 1 C-5.23735711 0.40267181 -2.83967231 0 0 0 Z " fill="#71B888" transform="translate(640,295)"/>
<path d="M0 0 C0.66 0.33 1.32 0.66 2 1 C1.34 3.31 0.68 5.62 0 8 C-0.66 8 -1.32 8 -2 8 C-1.125 1.125 -1.125 1.125 0 0 Z " fill="#22612F" transform="translate(983,851)"/>
<path d="M0 0 C3.3 0.99 6.6 1.98 10 3 C10 3.99 10 4.98 10 6 C9.67 5.34 9.34 4.68 9 4 C7.68 4.33 6.36 4.66 5 5 C4.67 4.01 4.34 3.02 4 2 C3.01 2.33 2.02 2.66 1 3 C0.67 2.01 0.34 1.02 0 0 Z " fill="#5DA46D" transform="translate(1029,86)"/>
<path d="M0 0 C0.33 0.66 0.66 1.32 1 2 C-2.3 1.67 -5.6 1.34 -9 1 C-4.88348273 -1.05825864 -4.13191749 -1.34008135 0 0 Z " fill="#287436" transform="translate(280,1176)"/>
<path d="M0 0 C-1.39332574 3.36720387 -2.9789286 4.9859524 -6 7 C-5.37162381 3.35541809 -4.14650034 0 0 0 Z " fill="#22602F" transform="translate(968,883)"/>
<path d="M0 0 C2.62187494 1.04874998 3.79371361 1.64931313 5.25 4.125 C5.4975 4.74375 5.745 5.3625 6 6 C5.01 6 4.02 6 3 6 C0 2.66666667 0 2.66666667 0 0 Z " fill="#22652F" transform="translate(965,675)"/>
<path d="M0 0 C-0.33 0.99 -0.66 1.98 -1 3 C-3.3125 3.625 -3.3125 3.625 -6 4 C-6.99 3.34 -7.98 2.68 -9 2 C-3.375 0 -3.375 0 0 0 Z " fill="#48A465" transform="translate(584,348)"/>
<path d="M0 0 C2.29633824 3.44450737 2.54016485 5.93812283 3 10 C2.67 9.34 2.34 8.68 2 8 C1.34 8 0.68 8 0 8 C0 5.36 0 2.72 0 0 Z " fill="#5D976A" transform="translate(1167,232)"/>
<path d="M0 0 C-1.39332574 3.36720387 -2.9789286 4.9859524 -6 7 C-5.37162381 3.35541809 -4.14650034 0 0 0 Z " fill="#69E4A4" transform="translate(134,149)"/>
</svg>
