<svg width="512" height="512" viewBox="0 0 512 512" fill="none" xmlns="http://www.w3.org/2000/svg" role="img" aria-labelledby="title desc">
  <title id="title">Chytrá váha logo</title>
  <desc id="desc">Modern logo for a smart food scale app: scale, plate, leaf and Wi‑Fi signal.</desc>
  <defs>
    <linearGradient id="bg" x1="80" y1="52" x2="432" y2="460" gradientUnits="userSpaceOnUse">
      <stop stop-color="#69F0AE"/>
      <stop offset="0.45" stop-color="#2E7D32"/>
      <stop offset="1" stop-color="#0F3D1C"/>
    </linearGradient>
    <linearGradient id="plate" x1="132" y1="259" x2="380" y2="344" gradientUnits="userSpaceOnUse">
      <stop stop-color="#FFFFFF"/>
      <stop offset="1" stop-color="#DFF5E4"/>
    </linearGradient>
    <filter id="shadow" x="52" y="60" width="408" height="392" filterUnits="userSpaceOnUse" color-interpolation-filters="sRGB">
      <feDropShadow dx="0" dy="18" stdDeviation="18" flood-color="#06240D" flood-opacity="0.28"/>
    </filter>
  </defs>

  <rect width="512" height="512" rx="120" fill="url(#bg)"/>

  <g filter="url(#shadow)">
    <rect x="96" y="274" width="320" height="118" rx="38" fill="#F8FFF9"/>
    <rect x="118" y="296" width="276" height="74" rx="26" fill="#1B5E20" opacity="0.10"/>

    <ellipse cx="256" cy="276" rx="116" ry="42" fill="url(#plate)"/>
    <ellipse cx="256" cy="276" rx="78" ry="24" stroke="#2E7D32" stroke-width="10" opacity="0.72"/>

    <path d="M256 134C211.8 134 176 169.8 176 214" stroke="#F8FFF9" stroke-width="20" stroke-linecap="round" opacity="0.95"/>
    <path d="M256 134C300.2 134 336 169.8 336 214" stroke="#F8FFF9" stroke-width="20" stroke-linecap="round" opacity="0.95"/>
    <circle cx="256" cy="214" r="24" fill="#F8FFF9"/>

    <path d="M256 176V214" stroke="#2E7D32" stroke-width="13" stroke-linecap="round"/>

    <path d="M204 250C213 224 240 209 265 218C242 225 224 238 214 260C210 258 207 254 204 250Z" fill="#43A047"/>
    <path d="M308 248C299 224 272 211 248 219C270 226 288 238 298 260C302 257 305 253 308 248Z" fill="#69F0AE"/>

    <path d="M198 331H314" stroke="#2E7D32" stroke-width="18" stroke-linecap="round"/>
    <path d="M170 331H170.5" stroke="#2E7D32" stroke-width="18" stroke-linecap="round"/>
    <path d="M342 331H342.5" stroke="#2E7D32" stroke-width="18" stroke-linecap="round"/>
  </g>

  <g opacity="0.95">
    <path d="M349 150C373 174 373 212 349 236" stroke="#B9F6CA" stroke-width="14" stroke-linecap="round"/>
    <path d="M374 125C412 163 412 223 374 261" stroke="#B9F6CA" stroke-width="12" stroke-linecap="round" opacity="0.72"/>
  </g>
</svg>
